<?xml version="1.0" encoding="UTF-8"?> <svg xmlns="http://www.w3.org/2000/svg" xmlns:xlink="http://www.w3.org/1999/xlink" width="558.48953" height="469.99999" viewBox="0 0 558.48953 469.99999"><defs><style>.a,.b,.g{fill:#fff;}.a,.aa,.ab,.af,.ai,.am,.ao,.at,.au,.ax,.az,.bc,.bh,.bk,.bo,.bq,.bu,.bv,.bx,.by,.ci,.cl,.co,.cq,.cr,.cu,.l,.q,.x,.y{fill-rule:evenodd;}.ad,.ag,.al,.aw,.be,.bj,.bm,.bs,.c,.cd,.ce,.cf,.cv,.cx,.k{fill:none;}.d{clip-path:url(#a);}.e{fill:#f4f6f8;}.bh,.f{fill:#1b4478;}.g{stroke:#e9e9e9;stroke-miterlimit:10;}.h{fill:#d3d3d3;}.i{fill:#909190;}.j,.x{fill:#212322;}.k{stroke:#3a69a6;}.l{fill:#6187b8;}.m{mask:url(#b);}.n,.q{fill:#3a69a6;}.o{mask:url(#c);}.p{mask:url(#d);}.r{fill:#9ab9d8;}.s{fill:#bf2c15;}.t{fill:#83a671;}.u{fill:#9a2717;}.v{fill:#52816d;}.w{fill:#e6e6e6;}.y{fill:#fdd0be;}.z{mask:url(#e);}.aa{fill:#fcb093;}.ab{fill:#fac1aa;}.ac{mask:url(#f);}.ad{stroke:#d7937a;}.ad,.ag,.al,.aw,.be,.bj,.bs,.cd,.ce{stroke-width:0.5px;}.ae{mask:url(#g);}.af{fill:#d7937a;}.ag,.cf{stroke:#111;}.ah{mask:url(#h);}.ai{fill:#13090a;}.aj{mask:url(#i);}.ak{mask:url(#j);}.al{stroke:#17477f;}.am{fill:#f75c65;}.an{mask:url(#k);}.ao{fill:#f5333f;}.ap{mask:url(#l);}.aq{mask:url(#m);}.ar{opacity:0.4;}.as{fill:#fbadb2;}.at{fill:#b16d62;}.au{fill:#fdc0a9;}.av{mask:url(#n);}.aw{stroke:#4b1717;}.ax{fill:#33d1c3;}.ay{mask:url(#o);}.az{fill:#00c5b4;}.ba{mask:url(#p);}.bb{mask:url(#q);}.bc{fill:#f7c4b1;}.bd{mask:url(#r);}.be{stroke:#f7c4b1;}.be,.cf{stroke-linecap:round;}.bf{mask:url(#t);}.bg{mask:url(#u);}.bi{mask:url(#v);}.bj{stroke:#324582;}.bk{fill:#496993;}.bl{mask:url(#w);}.bm{stroke:#1d2353;}.bn{fill:#4d4f4e;}.bo{fill:#fedfd4;}.bp{mask:url(#x);}.bq{fill:#ffe45c;}.br{mask:url(#y);}.bs{stroke:#101628;}.bt{mask:url(#aa);}.bu{fill:#ffd917;}.bv{fill:#097d3f;}.bw,.by{fill:#71b0a4;}.bx{fill:#adddd8;}.bz{fill:#273935;}.ca{mask:url(#ae);}.cb{mask:url(#af);}.cc{mask:url(#ag);}.cd{stroke:#37446a;}.ce,.cv{stroke:#1b4478;}.cf{stroke-width:1.5px;}.cg{mask:url(#ak);}.ch{mask:url(#al);}.ci{fill:#fdb093;}.cj{mask:url(#am);}.ck{mask:url(#an);}.cl{fill:#a6a7a7;}.cm{fill:#ededf9;}.cn{mask:url(#ao);}.co{fill:#8da1bb;}.cp{mask:url(#ap);}.cq,.cs{fill:#768fae;}.cr{fill:#dde1f1;}.ct{mask:url(#aq);}.cu{fill:#25bbb5;}.cw{mask:url(#ar);}.cx{stroke:#fff;}</style><clipPath id="a" transform="translate(-5.18622 0.00058)"><rect class="c" x="93.6752" y="-0.00508" width="470" height="470"></rect></clipPath><mask id="b" x="386.92153" y="322.90762" width="59.97508" height="78.22992" maskUnits="userSpaceOnUse"><g transform="translate(-5.18622 0.00058)"><path class="a" d="M406.49948,339.65931l-14.34681,59.50351a1.59931,1.59931,0,0,0,1.55473,1.97414,2.65721,2.65721,0,0,0,2.564-1.95945l16.19753-59.5182h-5.96941Z"></path></g></mask><mask id="c" x="384.0339" y="322.90762" width="59.97508" height="78.22992" maskUnits="userSpaceOnUse"><g transform="translate(-5.18622 0.00058)"><path class="a" d="M434.80347,339.65931l14.34681,59.50351a1.59931,1.59931,0,0,1-1.55473,1.97414,2.65721,2.65721,0,0,1-2.564-1.95945l-16.19753-59.5182h5.96941Z"></path></g></mask><mask id="d" x="379.99003" y="281.37709" width="83.81844" height="63.10935" maskUnits="userSpaceOnUse"><g transform="translate(-5.18622 0.00058)"><path class="a" d="M459.10987,281.41367c-1.62457.31964-6.32541,3.77374-9.21922,14.48a131.64539,131.64539,0,0,0-2.99371,14.32429c-1.35693,8.50856-.88391,17.39371-7.44371,20.55664-11.69632,5.63959-46.75377,1.61027-49.31472,3.43284s-1.99017,5.13384,4.589,5.54823,38.99232,1.19245,45.58088-.95976,12.91586-7.0597,13.78073-20.001,1.67593-23.471,4.57324-29.74814S460.73445,281.094,459.10987,281.41367Z"></path></g></mask><mask id="e" x="484.74831" y="165.16128" width="21.20964" height="35.23346" maskUnits="userSpaceOnUse"><g transform="translate(-5.18622 0.00058)"><path class="a" d="M490.51192,169.55635q-2.012,16.31692,6.32877,17.97681-.4262,3.44295-4.72062,7.49908c-4.29443,4.05614,3.49864,7.81381,10.35188,3.32645q6.85323-4.48736,8.624-6.65734-6.40388-1.77192-4.1526-12.795,4.65075-2.91675,4.1526-5.62715c-.49815-2.71039-3.03747-1.46764-3.89066.57789s-1.215,3.26573-1.535,0-.32-2.32887-1.692-4.30077a5.67286,5.67286,0,0,1-.94149-4.39565,9.83459,9.83459,0,0,1-3.09311,3.5565Q497.54065,170.62381,490.51192,169.55635Z"></path></g></mask><mask id="f" x="420.37293" y="169.54289" width="20.02753" height="22.12518" maskUnits="userSpaceOnUse"><g transform="translate(-5.18622 0.00058)"><path class="a" d="M445.58668,185.6595l-3.19174-3.52126a16.927,16.927,0,0,0-1.38872-6.41483,23.08763,23.08763,0,0,1-1.65761-4.18021,2.04522,2.04522,0,0,0-1.13064,2.54648c.35783,1.8839.96024,3.46088-.02135,3.07105s-8.28081-8.21855-9.76481-7.58158q-.26092.11169-.215.55258a4.12157,4.12157,0,0,0,.682,1.41147q-1.50366-.953-2.01265-.4999t0,1.227q-.803-.30024-1.0848,0t.25614,1.46643q-.89619.26944-.18061,1.73265c.71559,1.4632,1.6027,2.79188,1.86145,3.275s1.57158,3.66005,7.6619,7.45676a24.61113,24.61113,0,0,1,5.21124,5.4664Z"></path></g></mask><mask id="g" x="420.37293" y="169.54289" width="20.02753" height="23.67319" maskUnits="userSpaceOnUse"><g transform="translate(-5.18622 0.00058)"><path class="a" d="M445.58668,185.6595l-3.19174-3.52126a16.927,16.927,0,0,0-1.38872-6.41483,23.08763,23.08763,0,0,1-1.65761-4.18021,2.04522,2.04522,0,0,0-1.13064,2.54648c.35783,1.8839.96024,3.46088-.02135,3.07105s-8.28081-8.21855-9.76481-7.58158q-.26092.11169-.215.55258a4.12157,4.12157,0,0,0,.682,1.41147q-1.50366-.953-2.01265-.4999t0,1.227q-.803-.30024-1.0848,0t.25614,1.46643q-.89619.26944-.18061,1.73265c.71559,1.4632,1.6027,2.79188,1.86145,3.275s1.57158,3.66005,7.6619,7.45676a24.61113,24.61113,0,0,1,5.21124,5.4664Z"></path></g></mask><mask id="h" x="477.37258" y="374.8173" width="16.15752" height="22.29318" maskUnits="userSpaceOnUse"><g transform="translate(-5.18622 0.00058)"><path class="a" d="M482.5588,395.42675a9.8874,9.8874,0,0,0,3.65462-3.0364c2.9574-4.79346,3.95888-11.38861,3.35261-17.57363h6.15412a10.7615,10.7615,0,0,0,1.30862,4.261c1.08566,1.94583,2.03782,3.91977,1.56174,5.34428q-.47609,1.4245-8.34086,12.68791Z"></path></g></mask><mask id="i" x="520.41283" y="371.49118" width="13.90227" height="22.90444" maskUnits="userSpaceOnUse"><g transform="translate(-5.18622 0.00058)"><path class="a" d="M525.59905,394.073a9.88734,9.88734,0,0,0,3.07183-3.62489c2.0801-5.23418,1.92112-11.903.25-17.88882l6.06062-1.06865a10.76174,10.76174,0,0,0,2.02865,3.969c1.40706,1.72774,2.68752,3.50636,2.466,4.99189q-.22148,1.48554-6.01091,13.94354Z"></path></g></mask><mask id="j" x="477.17706" y="244.0763" width="56.25899" height="132.90578" maskUnits="userSpaceOnUse"><g transform="translate(-5.18622 0.00058)"><path class="a" d="M516.07189,244.07572q6.47128,9.09024,3.54678,23.01276c-2.92452,13.92252,1.203,23.278,4.3296,38.31615q3.12664,15.03815,14.674,67.82063l-10.92,1.70092a306.21012,306.21012,0,0,1-11.68459-29.03545q-5.86724-16.71423-14.552-43.2309-1.43077,24.27247-1.86422,39.43054T498.611,376.1452l-11.06039.8363a398.4019,398.4019,0,0,1-4.99283-52.44706q-.78063-26.59848,1.57242-79.86524Z"></path></g></mask><mask id="k" x="434.78623" y="184.94321" width="100.05897" height="68.91062" maskUnits="userSpaceOnUse"><g transform="translate(-5.18622 0.00058)"><path class="a" d="M483.65729,245.31908c1.22165-8.67252-.42286-14.79629-2.96708-21.53761q-2.54422-6.74132.90988-12.18742l-21.6199,2.44612a3.545,3.545,0,0,1-3.16218-1.30231l-16.84556-20.96875h0l5.75474-6.82648,16.05813,15.99546a1.77251,1.77251,0,0,0,1.89379.396q18.20158-7.08434,22.75788-8.39168a55.96327,55.96327,0,0,1,8.68613-1.31622q-1.75669,3.935,3.07329,4.80247t11.03187-5.39668q12.38007,1.91043,16.56259,9.36246c4.18253,7.452,21.54084,31.64655,10.77042,39.799q-10.77042,8.15243-18.69082,13.65985l-4.27838-6.08333,14.73367-15.3404L518.879,216.99734l-3.96658,18.77786,1.1595,8.301Z"></path></g></mask><mask id="l" x="434.78623" y="182.77829" width="100.05897" height="71.07555" maskUnits="userSpaceOnUse"><g transform="translate(-5.18622 0.00058)"><path class="a" d="M483.65729,245.31908c1.22165-8.67252-.42286-14.79629-2.96708-21.53761q-2.54422-6.74132.90988-12.18742l-21.6199,2.44612a3.545,3.545,0,0,1-3.16218-1.30231l-16.84556-20.96875h0l5.75474-6.82648,16.05813,15.99546a1.77251,1.77251,0,0,0,1.89379.396q18.20158-7.08434,22.75788-8.39168a55.96327,55.96327,0,0,1,8.68613-1.31622q-1.75669,3.935,3.07329,4.80247t11.03187-5.39668q12.38007,1.91043,16.56259,9.36246c4.18253,7.452,21.54084,31.64655,10.77042,39.799q-10.77042,8.15243-18.69082,13.65985l-4.27838-6.08333,14.73367-15.3404L518.879,216.99734l-3.96658,18.77786,1.1595,8.301Z"></path></g></mask><mask id="m" x="423.17807" y="147.67806" width="127.15212" height="133.14483" maskUnits="userSpaceOnUse"><g transform="translate(-5.18622 0.00058)"><path class="a" d="M483.65729,245.31908c1.22165-8.67252-.42286-14.79629-2.96708-21.53761q-2.54422-6.74132.90988-12.18742l-21.6199,2.44612a3.545,3.545,0,0,1-3.16218-1.30231l-16.84556-20.96875h0l5.75474-6.82648,16.05813,15.99546a1.77251,1.77251,0,0,0,1.89379.396q18.20158-7.08434,22.75788-8.39168a55.96327,55.96327,0,0,1,8.68613-1.31622q-1.75669,3.935,3.07329,4.80247t11.03187-5.39668q12.38007,1.91043,16.56259,9.36246c4.18253,7.452,21.54084,31.64655,10.77042,39.799q-10.77042,8.15243-18.69082,13.65985l-4.27838-6.08333,14.73367-15.3404L518.879,216.99734l-3.96658,18.77786,1.1595,8.301Z"></path></g></mask><mask id="n" x="392.55135" y="219.8138" width="20.6169" height="36.49357" maskUnits="userSpaceOnUse"><g transform="translate(-5.18622 0.00058)"><path class="a" d="M398.069,220.64124c-1.55808,13.209,2.59248,21.64472,7.9369,19.81608q.94569,1.91211-.34806,7.9189c-1.22893,5.7058,2.89934,8.23436,5.60074,7.90161s7.09586-5.9156,7.09586-9.78638q0-1.77165-2.05953-11.07162a32.74694,32.74694,0,0,1-.369-3.91694c0-2.212.14955-2.86522.369-3.22142,1.92609-3.12576.09049-4.71536-1.18029-4.16721s-1.4277,2.52845-1.52532,2.88634-.12866,1.91014-.678-.4881-1.36238-2.01029-2.14632-3.33593-.66167-2.99682-1.95718-3.28831c-2.01765-.454-5.5409,1.29485-7.92232,1.4255A4.93233,4.93233,0,0,1,398.069,220.64124Z"></path></g></mask><mask id="o" x="372.55416" y="244.85786" width="68.3285" height="68.70164" maskUnits="userSpaceOnUse"><g transform="translate(-5.18622 0.00058)"><path class="a" d="M418.21635,244.85728a10.8849,10.8849,0,0,1-2.28256,5.84569c-1.69581,1.84313-6.598,3.57874-8.69194,1.48869q-2.0939-2.09007-1.1723-5.82776l-4.9836.421a14.35723,14.35723,0,0,0-11.72676,8.07665l-11.61881,24.12553h0l13.00571,6.02862,3.0136-5.72678A319.70084,319.70084,0,0,0,392.0078,311.71l38.91692,1.326a182.656,182.656,0,0,1-1.6358-18.26289q0-4.87622,1.00661-15.48418l.84549,3.43047,14.92786-1.69616q-3.97517-24.67767-9.50563-29.48538T418.21635,244.85728Z"></path></g></mask><mask id="p" x="372.55416" y="244.85786" width="68.3285" height="68.1787" maskUnits="userSpaceOnUse"><g transform="translate(-5.18622 0.00058)"><path class="a" d="M418.21635,244.85728a10.8849,10.8849,0,0,1-2.28256,5.84569c-1.69581,1.84313-6.598,3.57874-8.69194,1.48869q-2.0939-2.09007-1.1723-5.82776l-4.9836.421a14.35723,14.35723,0,0,0-11.72676,8.07665l-11.61881,24.12553h0l13.00571,6.02862,3.0136-5.72678A319.70084,319.70084,0,0,0,392.0078,311.71l38.91692,1.326a182.656,182.656,0,0,1-1.6358-18.26289q0-4.87622,1.00661-15.48418l.84549,3.43047,14.92786-1.69616q-3.97517-24.67767-9.50563-29.48538T418.21635,244.85728Z"></path></g></mask><mask id="q" x="391.65684" y="281.15953" width="49.97039" height="25.44326" maskUnits="userSpaceOnUse"><g transform="translate(-5.18622 0.00058)"><path class="a" d="M431.943,282.606l1.53954,7.18388-17.21331-.97614q-8.69385-2.21532-11.228-1.7433a17.28554,17.28554,0,0,0-5.97478,2.71944q-2.79864,3.88307-2.07455,4.386t3.15639-2.8926l3.7634-1.33427a9.91867,9.91867,0,0,0-3.04467,1.75356c-.42239.56955-2.07629,4.12835-1.39751,4.56513q.67878.43679,2.49434-3.29384l3.38925-1.2271q-3.08188,1.52664-3.08188,2.11955c0,.59291-.69779,4.02545,0,3.90488q.69778-.12058,1.20732-3.06l2.92628-1.00415q-1.91022.97692-2.03247,1.63978c-.12225.66286-.43,2.197-.0904,2.31068s.99691-1.306,1.21246-1.9489a31.64756,31.64756,0,0,0,8.15182-1.84522q19.59152,7.77186,24.81377,8.602c5.22224.83011,7.45708-3.29156,7.45708-7.39119q0-4.09962-1.06086-13.91515Z"></path></g></mask><mask id="r" x="326.11729" y="279.83512" width="58.81382" height="22.24768" maskUnits="userSpaceOnUse"><g transform="translate(-5.18622 0.00058)"><path class="a" d="M379.60488,279.83454l10.51246,4.898q-5.1142,11.16759-9.80911,12.61458a60.75138,60.75138,0,0,1-8.39936,1.86694q-5.58317.82683-24.15722,2.61814H331.30351q1.76558-6.417,15.58625-3.91237L375.87513,287.608Z"></path></g></mask><mask id="t" x="315.35928" y="373.36492" width="17.99606" height="20.70848" maskUnits="userSpaceOnUse"><g transform="translate(-5.18622 0.00058)"><polygon class="a" points="328.488 373.364 320.546 389.48 327.924 394.073 330.701 392.453 338.542 375.005 328.488 373.364"></polygon></g></mask><mask id="u" x="366.84457" y="377.36932" width="15.8142" height="14.3962" maskUnits="userSpaceOnUse"><g transform="translate(-5.18622 0.00058)"><polygon class="a" points="372.471 379.761 376.772 389.866 386.306 391.765 387.845 388.452 384.516 377.369 372.471 379.761"></polygon></g></mask><mask id="v" x="314.66181" y="312.18847" width="68.32441" height="68.22405" maskUnits="userSpaceOnUse"><g transform="translate(-5.18622 0.00058)"><path class="a" d="M388.17245,312.67182q-26.76968-2.15954-33.97387,5.3179T322.16519,378.3319l16.39005,2.08,25.44984-41.9004,9.2269-5.715Z"></path></g></mask><mask id="w" x="349.2107" y="309.63246" width="78.17278" height="70.79707" maskUnits="userSpaceOnUse"><g transform="translate(-5.18622 0.00058)"><path class="a" d="M430.83729,310.82384q2.60811,25.96932-19.41636,24.87776t-38.22575-6.54508l13.34844,50.16687L371.45177,380.429q-21.71618-55.73079-15.78084-64.862,3.97546-6.11606,36.35263-5.33748Q402.66455,310.48534,430.83729,310.82384Z"></path></g></mask><mask id="x" x="85.03028" y="166.07788" width="19.8264" height="34.06751" maskUnits="userSpaceOnUse"><g transform="translate(-5.18622 0.00058)"><path class="a" d="M108.93048,171.75018q1.8722,14.80865-5.9246,16.36126.97966,3.224,4.994,7.018c4.01436,3.794-3.27047,7.30884-9.67676,3.11148q-6.40627-4.19736-8.0616-6.22711,5.98623-1.65741,3.88178-11.96809-4.34744-2.72825-3.88178-5.26348t3.99866.69516a8.21436,8.21436,0,0,0,4.06294-2.9041,14.61893,14.61893,0,0,0,1.73739-5.71751h0a.88628.88628,0,0,1,.82722-.75466,8.84989,8.84989,0,0,1,5.66852,1.26773A5.21832,5.21832,0,0,1,108.93048,171.75018Z"></path></g></mask><mask id="y" x="63.7306" y="191.08326" width="57.53087" height="59.78594" maskUnits="userSpaceOnUse"><g transform="translate(-5.18622 0.00058)"><path class="a" d="M119.1934,250.86862H80.44251l5.51182-18.49318L82.3091,221.21509l-.326,4.854-13.06625-2.0245,3.3279-16.60544a15.06621,15.06621,0,0,1,8.14139-10.56792l11.80963-5.78857h0l11.385,8.05247,2.75874-5.6976,4.43818.58514a13.2937,13.2937,0,0,1,10.67157,8.41156l4.9985,13.00885h-7.83356q3.91361,7.493-.60857,13.98243Q118.7338,238.64857,119.1934,250.86862Z"></path></g></mask><mask id="aa" x="63.7306" y="191.08326" width="57.53087" height="62.91981" maskUnits="userSpaceOnUse"><g transform="translate(-5.18622 0.00058)"><path class="a" d="M119.1934,250.86862H80.44251l5.51182-18.49318L82.3091,221.21509l-.326,4.854-13.06625-2.0245,3.3279-16.60544a15.06621,15.06621,0,0,1,8.14139-10.56792l11.80963-5.78857h0l11.385,8.05247,2.75874-5.6976,4.43818.58514a13.2937,13.2937,0,0,1,10.67157,8.41156l4.9985,13.00885h-7.83356q3.91361,7.493-.60857,13.98243Q118.7338,238.64857,119.1934,250.86862Z"></path></g></mask><mask id="ae" x="107.71733" y="376.87353" width="15.10377" height="20.85246" maskUnits="userSpaceOnUse"><g transform="translate(-5.18622 0.00058)"><path class="a" d="M128.00733,396.151a9.24391,9.24391,0,0,1-3.41627-2.84017c-2.76453-4.48367-3.7007-10.65261-3.134-16.43792h-5.75276a10.07051,10.07051,0,0,1-1.22328,3.98562c-1.01485,1.82007-1.90491,3.66645-1.45988,4.9989q.445,1.33245,7.79689,11.86794Z"></path></g></mask><mask id="af" x="79.85113" y="376.66371" width="16.19569" height="20.80503" maskUnits="userSpaceOnUse"><g transform="translate(-5.18622 0.00058)"><path class="a" d="M101.233,395.15092a9.244,9.244,0,0,1-3.69443-2.46751c-3.21806-4.17014-4.79392-10.20743-4.835-16.02029l-5.72125.60133a10.07065,10.07065,0,0,1-.8,4.09165c-.81905,1.91618-1.51124,3.84548-.92937,5.12411q.58188,1.27865,8.99472,10.98794Z"></path></g></mask><mask id="ag" x="71.82486" y="250.86952" width="52.19475" height="127.7045" maskUnits="userSpaceOnUse"><g transform="translate(-5.18622 0.00058)"><path class="a" d="M119.19389,250.86894l10.01194,74.84157L125.8193,377.899l-12.20686.31911-1.33116-50.29854-10.51683-46.64512-.90624,51.67741-5.1116,45.62161H84.766V334.23489q-5.59637-37.68846-5.59636-53.9582-4.88039-18.667,1.27331-29.40775Z"></path></g></mask><mask id="ak" x="61.74501" y="224.17752" width="46.8566" height="24.35998" maskUnits="userSpaceOnUse"><g transform="translate(-5.18622 0.00058)"><path class="a" d="M68.20027,245.84794c.85866,1.34116,4.48953,2.689,10.23934,2.689q5.54784,0,22.69485-3.60579a26.69062,26.69062,0,0,0,9.58761-.82953q3.73656-1.192,2.57233-6.31772,1.08566-1.58177-.21733-1.91989l-1.2029.72872q-5.05458.7908-6.19713.93071a1.50752,1.50752,0,0,1-1.64324-.74016l.1915-1.92979a8.143,8.143,0,0,0-4.01618,4.49209q-4.21839,1.773-22.23331-.49019l3.39189-12.89008-11.54335-1.78836Q65.01513,240.873,68.20027,245.84794Z"></path></g></mask><mask id="al" x="61.74501" y="224.17752" width="46.92463" height="24.35998" maskUnits="userSpaceOnUse"><g transform="translate(-5.18622 0.00058)"><path class="a" d="M68.20027,245.84794c.85866,1.34116,4.48953,2.689,10.23934,2.689q5.54784,0,22.69485-3.60579a26.69062,26.69062,0,0,0,9.58761-.82953q3.73656-1.192,2.57233-6.31772,1.08566-1.58177-.21733-1.91989l-1.2029.72872q-5.05458.7908-6.19713.93071a1.50752,1.50752,0,0,1-1.64324-.74016l.1915-1.92979a8.143,8.143,0,0,0-4.01618,4.49209q-4.21839,1.773-22.23331-.49019l3.39189-12.89008-11.54335-1.78836Q65.01513,240.873,68.20027,245.84794Z"></path></g></mask><mask id="am" x="100.64507" y="190.45403" width="24.37805" height="45.11083" maskUnits="userSpaceOnUse"><g transform="translate(-5.18622 0.00058)"><path class="a" d="M114.5591,203.82948a9.83911,9.83911,0,0,0,1.76742,3.38179c.68838.92837,3.82271,4.73474,7.14371,9.28863,3.481,4.77328,7.12949,10.384,6.70537,15.08218-.82875,9.18047-10.585.693-13.84908-7.4056q-3.26406-8.09864-6.06465-17.14145-4.804-6.18239-4.3991-11.83116.01671-1.40566.46547-1.15615-.21872-1.08093.36212-1.17627-.027-1.18512.59893-1.19659-.25006-.8085.13443-1.10791t1.30961.19094a7.81745,7.81745,0,0,1,1.76207,1.66816,31.18456,31.18456,0,0,1,2.2388,3.11074,2.98,2.98,0,0,0-.22271-1.12894c-.2448-.66864-.18892-1.89041.46279-1.9818a5.69033,5.69033,0,0,0,.55975,1.26434c.305.48239,1.77613,2.93366,1.55829,4.42571a29.05779,29.05779,0,0,0-.53322,3.2018Q114.5023,201.99418,114.5591,203.82948Z"></path></g></mask><mask id="an" x="100.64507" y="190.45403" width="25.68277" height="45.11083" maskUnits="userSpaceOnUse"><g transform="translate(-5.18622 0.00058)"><path class="a" d="M114.5591,203.82948a9.83911,9.83911,0,0,0,1.76742,3.38179c.68838.92837,3.82271,4.73474,7.14371,9.28863,3.481,4.77328,7.12949,10.384,6.70537,15.08218-.82875,9.18047-10.585.693-13.84908-7.4056q-3.26406-8.09864-6.06465-17.14145-4.804-6.18239-4.3991-11.83116.01671-1.40566.46547-1.15615-.21872-1.08093.36212-1.17627-.027-1.18512.59893-1.19659-.25006-.8085.13443-1.10791t1.30961.19094a7.81745,7.81745,0,0,1,1.76207,1.66816,31.18456,31.18456,0,0,1,2.2388,3.11074,2.98,2.98,0,0,0-.22271-1.12894c-.2448-.66864-.18892-1.89041.46279-1.9818a5.69033,5.69033,0,0,0,.55975,1.26434c.305.48239,1.77613,2.93366,1.55829,4.42571a29.05779,29.05779,0,0,0-.53322,3.2018Q114.5023,201.99418,114.5591,203.82948Z"></path></g></mask><mask id="ao" x="281.21484" y="232.31349" width="69.3214" height="49.37962" maskUnits="userSpaceOnUse"><g transform="translate(-5.18622 0.00058)"><rect class="b" x="288.30028" y="232.3129" width="67.42218" height="49.37962" rx="2.84882"></rect></g></mask><mask id="ap" x="283.11406" y="232.31349" width="67.42218" height="49.37962" maskUnits="userSpaceOnUse"><g transform="translate(-5.18622 0.00058)"><rect class="b" x="288.30028" y="232.3129" width="67.42218" height="49.37962" rx="2.84882"></rect></g></mask><mask id="aq" x="304.00544" y="281.69311" width="8.54647" height="7.59687" maskUnits="userSpaceOnUse"><g transform="translate(-5.18622 0.00058)"><circle class="b" cx="312.99009" cy="285.49096" r="3.79843"></circle></g></mask><mask id="ar" x="9.38261" y="365.79695" width="41.07208" height="34.9505" maskUnits="userSpaceOnUse"><g transform="translate(-5.18622 0.00058)"><path class="a" d="M15.39284,365.79636h38.905v15.498a19.4525,19.4525,0,1,1-38.905,0v-15.498Z"></path></g></mask></defs><g class="d"><path class="e" d="M328.6752,469.99941c129.787,0,235.00056-105.21579,235.00056-235.00287,0-129.78593-105.21351-234.99712-235.00056-234.99712S93.67577,105.21061,93.67577,234.99654c0,129.78708,105.21235,235.00287,234.99943,235.00287" transform="translate(-5.18622 0.00058)"></path></g><path class="f" d="M5.587,400.865H489.72854c.22123,0,.40078-.0951.40078-.21229s-.17955-.21228-.40078-.21228H5.587c-.22123,0-.40078.0951-.40078.21228s.17955.21229.40078.21229" transform="translate(-5.18622 0.00058)"></path><rect class="g" x="0.93569" y="55.52577" width="369.09198" height="215.30365"></rect><rect class="h" x="0.87418" y="70.84308" width="15.37883" height="199.92481"></rect><path class="i" d="M10.8586,79.82374H16.395a1.81251,1.81251,0,0,1,1.84546,1.84546v.24606A1.81252,1.81252,0,0,1,16.395,83.76072H10.8586a1.81252,1.81252,0,0,1-1.84546-1.84546V81.6692A1.8507,1.8507,0,0,1,10.8586,79.82374Z" transform="translate(-5.18622 0.00058)"></path><path class="i" d="M10.8586,91.14256H16.395A1.81252,1.81252,0,0,1,18.24044,92.988v.24606A1.81252,1.81252,0,0,1,16.395,95.07954H10.8586a1.81252,1.81252,0,0,1-1.84546-1.84546V92.988A1.85071,1.85071,0,0,1,10.8586,91.14256Z" transform="translate(-5.18622 0.00058)"></path><path class="i" d="M10.8586,101.66168H16.395a1.81252,1.81252,0,0,1,1.84546,1.84546v.24606a1.81252,1.81252,0,0,1-1.84546,1.84546H10.8586a1.81252,1.81252,0,0,1-1.84546-1.84546v-.24606A1.85071,1.85071,0,0,1,10.8586,101.66168Z" transform="translate(-5.18622 0.00058)"></path><path class="i" d="M10.8586,112.1808H16.395a1.81252,1.81252,0,0,1,1.84546,1.84546v.24606a1.81252,1.81252,0,0,1-1.84546,1.84546H10.8586a1.81252,1.81252,0,0,1-1.84546-1.84546v-.24606A1.85071,1.85071,0,0,1,10.8586,112.1808Z" transform="translate(-5.18622 0.00058)"></path><rect class="j" x="0.93569" y="55.52577" width="369.09198" height="15.37883"></rect><path class="k" d="M409.63225,339.14946l30.57911,28.354" transform="translate(-5.18622 0.00058)"></path><path class="k" d="M432.65333,339.14946l-30.57911,28.354" transform="translate(-5.18622 0.00058)"></path><path class="l" d="M406.49948,339.65931l-14.34681,59.50351a1.59931,1.59931,0,0,0,1.55473,1.97414,2.65721,2.65721,0,0,0,2.564-1.95945l16.19753-59.5182h-5.96941Z" transform="translate(-5.18622 0.00058)"></path><g class="m"><rect class="n" x="393.14627" y="322.90762" width="53.75034" height="18.47668"></rect></g><path class="l" d="M434.80347,339.65931l14.34681,59.50351a1.59931,1.59931,0,0,1-1.55473,1.97414,2.65721,2.65721,0,0,1-2.564-1.95945l-16.19753-59.5182h5.96941Z" transform="translate(-5.18622 0.00058)"></path><g class="o"><rect class="n" x="384.0339" y="322.90762" width="53.75034" height="18.47668"></rect></g><path class="l" d="M459.10987,281.41367c-1.62457.31964-6.32541,3.77374-9.21922,14.48a131.64539,131.64539,0,0,0-2.99371,14.32429c-1.35693,8.50856-.88391,17.39371-7.44371,20.55664-11.69632,5.63959-46.75377,1.61027-49.31472,3.43284s-1.99017,5.13384,4.589,5.54823,38.99232,1.19245,45.58088-.95976,12.91586-7.0597,13.78073-20.001,1.67593-23.471,4.57324-29.74814S460.73445,281.094,459.10987,281.41367Z" transform="translate(-5.18622 0.00058)"></path><g class="p"><path class="q" d="M461.75781,285.51657q-7.14256,5.33793-9.63153,22.12682c-2.48894,16.78888-1.9752,29.46575-20.50236,29.93891s-42.9002,1.59552-42.9002-1.88521-7.45025,3.94983-.757,6.64081q6.6932,2.691,44.82758,2.01067l32.347-7.30977,3.85346-43.76742Z" transform="translate(-5.18622 0.00058)"></path></g><rect class="r" x="76.45213" y="126.72472" width="241.0271" height="7.3444"></rect><rect class="r" x="145.84595" y="107.16538" width="101.7617" height="7.3444"></rect><rect class="s" x="145.84595" y="104.78067" width="101.7617" height="2.21974"></rect><rect class="r" x="50.71309" y="85.24927" width="300.62699" height="7.3444"></rect><rect class="t" x="95.50916" y="178.97698" width="158.55641" height="28.48499"></rect><rect class="t" x="56.44988" y="204.57031" width="197.61569" height="25.59324"></rect><rect class="t" x="27.57765" y="230.16355" width="330.60029" height="25.59324"></rect><rect class="u" x="151.93117" y="156.22297" width="102.1344" height="23.73386"></rect><rect class="v" x="27.57765" y="178.97698" width="279.09239" height="1.10931"></rect><rect class="v" x="306.67003" y="155.66831" width="51.5079" height="1.10931"></rect><rect class="t" x="249.89209" y="204.44333" width="108.28584" height="25.59324"></rect><rect class="w" x="246.48436" y="242.19036" width="26.33328" height="0.7984" transform="translate(11.87521 502.24114) rotate(-90)"></rect><rect class="w" x="144.25729" y="216.16362" width="25.72021" height="0.7984" transform="translate(-64.63165 373.6808) rotate(-90)"></rect><rect class="w" x="104.49227" y="242.19036" width="26.33328" height="0.7984" transform="translate(-130.11688 360.24906) rotate(-90)"></rect><rect class="w" x="56.44988" y="229.42351" width="56.422" height="0.74003"></rect><rect class="w" x="151.53197" y="229.42351" width="206.64597" height="0.74003"></rect><rect class="w" x="95.50916" y="203.7033" width="56.422" height="0.74003"></rect><rect class="v" x="300.12823" y="167.39576" width="24.41798" height="0.96192" transform="translate(139.27428 480.21452) rotate(-90)"></rect><path class="x" d="M490.17467,173.71522Q486.37,161.56557,496.94315,158.011c10.57311-3.55457,15.45823,4.505,17.12682,9.885s3.48739,11.54792,8.20882,15.49138,8.14718,14.22193-.64969,18.996-20.61155-2.64317-29.46851-6.77257,1.16644-11.13233-.40974-16.16694A40.8027,40.8027,0,0,1,490.17467,173.71522Z" transform="translate(-5.18622 0.00058)"></path><path class="y" d="M490.51192,169.55635q-2.012,16.31692,6.32877,17.97681-.4262,3.44295-4.72062,7.49908c-4.29443,4.05614,3.49864,7.81381,10.35188,3.32645q6.85323-4.48736,8.624-6.65734-6.40388-1.77192-4.1526-12.795,4.65075-2.91675,4.1526-5.62715c-.49815-2.71039-3.03747-1.46764-3.89066.57789s-1.215,3.26573-1.535,0-.32-2.32887-1.692-4.30077a5.67286,5.67286,0,0,1-.94149-4.39565,9.83459,9.83459,0,0,1-3.09311,3.5565Q497.54065,170.62381,490.51192,169.55635Z" transform="translate(-5.18622 0.00058)"></path><g class="z"><path class="aa" d="M496.84069,187.53316q3.83337.01846,5.64225-2.42536-.82849,5.90492-9.121,8.5851T496.84069,187.53316Z" transform="translate(-5.18622 0.00058)"></path></g><path class="ab" d="M445.58668,185.6595l-3.19174-3.52126a16.927,16.927,0,0,0-1.38872-6.41483,23.08763,23.08763,0,0,1-1.65761-4.18021,2.04522,2.04522,0,0,0-1.13064,2.54648c.35783,1.8839.96024,3.46088-.02135,3.07105s-8.28081-8.21855-9.76481-7.58158q-.26092.11169-.215.55258a4.12157,4.12157,0,0,0,.682,1.41147q-1.50366-.953-2.01265-.4999t0,1.227q-.803-.30024-1.0848,0t.25614,1.46643q-.89619.26944-.18061,1.73265c.71559,1.4632,1.6027,2.79188,1.86145,3.275s1.57158,3.66005,7.6619,7.45676a24.61113,24.61113,0,0,1,5.21124,5.4664Z" transform="translate(-5.18622 0.00058)"></path><g class="ac"><path class="ad" d="M434.59856,175.7175a9.82667,9.82667,0,0,0-4.21437,3.839m-1.59176-8.07783,4.6622,4.86663m-6.56851-4.07506,4.77454,5.36676m-5.6032-3.90033,4.45382,5.6627m3.73127,2.4018q.24454-2.85021,3.60732-3.814a5.17978,5.17978,0,0,0,.53393,4.90795" transform="translate(-5.18622 0.00058)"></path></g><g class="ae"><path class="af" d="M435.16441,186.22246a74.25106,74.25106,0,0,1,8.85807,5.90143q3.04931,2.48244-4.3026-.68046Z" transform="translate(-5.18622 0.00058)"></path></g><ellipse class="ag" cx="491.35969" cy="175.74662" rx="2.21562" ry="2.65874"></ellipse><ellipse class="ag" cx="485.15595" cy="175.74662" rx="2.21562" ry="2.65874"></ellipse><path class="y" d="M482.5588,395.42675a9.8874,9.8874,0,0,0,3.65462-3.0364c2.9574-4.79346,3.95888-11.38861,3.35261-17.57363h6.15412a10.7615,10.7615,0,0,0,1.30862,4.261c1.08566,1.94583,2.03782,3.91977,1.56174,5.34428q-.47609,1.4245-8.34086,12.68791Z" transform="translate(-5.18622 0.00058)"></path><g class="ah"><polygon class="aa" points="482.535 376.045 492.69 380.278 492.105 375.152 482.535 376.045"></polygon></g><path class="ai" d="M498.614,382.51527q1.96614.29529,1.96615,3.448v14.10022h-1.86422l-.62074-8.9124-3.67713,6.665a4.43125,4.43125,0,0,1-3.80632,2.29l-12.65412.21021h0q-3.55623.00943-.54929-2.27614a24.47947,24.47947,0,0,1,6.58582-3.56971,4.59243,4.59243,0,0,0,6.11273,1.18279Q493.66156,393.8638,498.614,382.51527Z" transform="translate(-5.18622 0.00058)"></path><path class="y" d="M525.59905,394.073a9.88734,9.88734,0,0,0,3.07183-3.62489c2.0801-5.23418,1.92112-11.903.25-17.88882l6.06062-1.06865a10.76174,10.76174,0,0,0,2.02865,3.969c1.40706,1.72774,2.68752,3.50636,2.466,4.99189q-.22148,1.48554-6.01091,13.94354Z" transform="translate(-5.18622 0.00058)"></path><g class="aj"><polygon class="aa" points="523.155 374.478 532.847 376.983 531.381 372.036 523.155 374.478"></polygon></g><path class="ai" d="M539.16824,378.56969q1.98755-.05061,2.535,3.05423l2.44848,13.886-1.8359.32372-2.15893-8.66921-2.4639,7.20226a4.43125,4.43125,0,0,1-3.35083,2.91621l-12.42537,2.40438h0q-3.50057.62683-.9362-2.14617a24.47938,24.47938,0,0,1,5.8659-4.6591,4.59242,4.59242,0,0,0,6.22525.10335Q536.26172,390.60579,539.16824,378.56969Z" transform="translate(-5.18622 0.00058)"></path><path class="q" d="M516.07189,244.07572q6.47128,9.09024,3.54678,23.01276c-2.92452,13.92252,1.203,23.278,4.3296,38.31615q3.12664,15.03815,14.674,67.82063l-10.92,1.70092a306.21012,306.21012,0,0,1-11.68459-29.03545q-5.86724-16.71423-14.552-43.2309-1.43077,24.27247-1.86422,39.43054T498.611,376.1452l-11.06039.8363a398.4019,398.4019,0,0,1-4.99283-52.44706q-.78063-26.59848,1.57242-79.86524Z" transform="translate(-5.18622 0.00058)"></path><g class="ak"><path class="al" d="M491.64171,273.493l12.38277,37.03565m15.20657-63.68337-35.78112,1.78187m30.40111-4.55139V247.307m-17.725-2.345v3.23126l.58038,15.30311a1.70994,1.70994,0,0,1-1.64391,1.77351q-.03239.00123-.0648.00123a1.776,1.776,0,0,1-1.776-1.776V244.962h0m-7.73062,0v3.23126q-2.04119,58.40052-2.04119,64.408a487.50525,487.50525,0,0,0,4.7221,60.3798m17.70278-128.90534V247.307l2.06032,9.11,7.6352,7.19666q-3.33053,13.676,2.20587,32.77484t18.07767,72.92331m2.178-.49971-12.24848,2.64441m-27.06808,1.2432-11.872.56278" transform="translate(-5.18622 0.00058)"></path></g><path class="ab" d="M520.01613,251.11362q-4.26306,3.15386-4.26305,4.3446c0,1.19076.65123,3.84756-1.45,6.96528l-6.36762-6.00621q1.10572-5.2876,7.81758-8.89032T520.01613,251.11362Z" transform="translate(-5.18622 0.00058)"></path><path class="am" d="M483.65729,245.31908c1.22165-8.67252-.42286-14.79629-2.96708-21.53761q-2.54422-6.74132.90988-12.18742l-21.6199,2.44612a3.545,3.545,0,0,1-3.16218-1.30231l-16.84556-20.96875h0l5.75474-6.82648,16.05813,15.99546a1.77251,1.77251,0,0,0,1.89379.396q18.20158-7.08434,22.75788-8.39168a55.96327,55.96327,0,0,1,8.68613-1.31622q-1.75669,3.935,3.07329,4.80247t11.03187-5.39668q12.38007,1.91043,16.56259,9.36246c4.18253,7.452,21.54084,31.64655,10.77042,39.799q-10.77042,8.15243-18.69082,13.65985l-4.27838-6.08333,14.73367-15.3404L518.879,216.99734l-3.96658,18.77786,1.1595,8.301Z" transform="translate(-5.18622 0.00058)"></path><g class="an"><path class="ao" d="M478.78048,215.70761q-.43126,9.04539,6.69233,10.22224c3.17567.52463,10.49886.52463,18.43187,0q8.38052-.55423,12.26757-12.93155l2.574,2.70931.48482,12.24469-3.05878,16.97231-34.57216,1.39985-5.214-31.63494Z" transform="translate(-5.18622 0.00058)"></path></g><g class="ap"><path class="am" d="M528.13763,232.25884a2.55084,2.55084,0,0,0,1.97018.93574q1.14072,0,3.86123-.27978l-19.26085,16.69567-2.05211-2.66187ZM465.14772,200.337q-3.37727,1.13164-4.03265,2.5786a11.57506,11.57506,0,0,0-.74011,4.25176l-17.61565-21.3152,2.89755-3.07442Z" transform="translate(-5.18622 0.00058)"></path></g><g class="aq"><g class="ar"><circle class="as" cx="546.01438" cy="186.3935" r="0.88625"></circle><circle class="as" cx="539.58868" cy="183.39715" r="0.88625"></circle><circle class="as" cx="533.96619" cy="180.77534" r="0.88625"></circle><circle class="as" cx="527.54048" cy="177.77898" r="0.88625"></circle><circle class="as" cx="521.11478" cy="174.78263" r="0.88625"></circle><circle class="as" cx="514.68907" cy="171.78627" r="0.88625"></circle><circle class="as" cx="509.06658" cy="169.16446" r="0.88625"></circle><circle class="as" cx="502.64088" cy="166.1681" r="0.88625"></circle><circle class="as" cx="496.21517" cy="163.17175" r="0.88625"></circle><circle class="as" cx="489.78947" cy="160.17539" r="0.88625"></circle><circle class="as" cx="483.36377" cy="157.17904" r="0.88625"></circle><circle class="as" cx="477.74128" cy="154.55723" r="0.88625"></circle><circle class="as" cx="471.31557" cy="151.56087" r="0.88625"></circle><circle class="as" cx="464.88987" cy="148.56452" r="0.88625"></circle><circle class="as" cx="549.44373" cy="195.81556" r="0.88625"></circle><circle class="as" cx="543.01803" cy="192.81921" r="0.88625"></circle><circle class="as" cx="536.59232" cy="189.82285" r="0.88625"></circle><circle class="as" cx="530.96983" cy="187.20104" r="0.88625"></circle><circle class="as" cx="524.54413" cy="184.20468" r="0.88625"></circle><circle class="as" cx="518.11842" cy="181.20833" r="0.88625"></circle><circle class="as" cx="511.69272" cy="178.21197" r="0.88625"></circle><circle class="as" cx="506.07023" cy="175.59016" r="0.88625"></circle><circle class="as" cx="499.64452" cy="172.59381" r="0.88625"></circle><circle class="as" cx="493.21882" cy="169.59745" r="0.88625"></circle><circle class="as" cx="486.79312" cy="166.6011" r="0.88625"></circle><circle class="as" cx="480.36741" cy="163.60474" r="0.88625"></circle><circle class="as" cx="474.74492" cy="160.98293" r="0.88625"></circle><circle class="as" cx="468.31922" cy="157.98658" r="0.88625"></circle><circle class="as" cx="461.89351" cy="154.99022" r="0.88625"></circle><circle class="as" cx="546.44738" cy="202.24126" r="0.88625"></circle><circle class="as" cx="540.02167" cy="199.24491" r="0.88625"></circle><circle class="as" cx="533.59597" cy="196.24855" r="0.88625"></circle><circle class="as" cx="527.97348" cy="193.62674" r="0.88625"></circle><circle class="as" cx="521.54777" cy="190.63039" r="0.88625"></circle><circle class="as" cx="515.12207" cy="187.63403" r="0.88625"></circle><circle class="as" cx="508.69636" cy="184.63768" r="0.88625"></circle><circle class="as" cx="503.07387" cy="182.01587" r="0.88625"></circle><circle class="as" cx="496.64817" cy="179.01951" r="0.88625"></circle><circle class="as" cx="490.22246" cy="176.02316" r="0.88625"></circle><circle class="as" cx="483.79676" cy="173.0268" r="0.88625"></circle><circle class="as" cx="477.37106" cy="170.03045" r="0.88625"></circle><circle class="as" cx="471.74857" cy="167.40864" r="0.88625"></circle><circle class="as" cx="465.32286" cy="164.41228" r="0.88625"></circle><circle class="as" cx="458.89716" cy="161.41593" r="0.88625"></circle><circle class="as" cx="543.82557" cy="207.86376" r="0.88625"></circle><circle class="as" cx="537.39986" cy="204.8674" r="0.88625"></circle><circle class="as" cx="530.97416" cy="201.87105" r="0.88625"></circle><circle class="as" cx="525.35167" cy="199.24923" r="0.88625"></circle><circle class="as" cx="518.92596" cy="196.25288" r="0.88625"></circle><circle class="as" cx="512.50026" cy="193.25652" r="0.88625"></circle><circle class="as" cx="506.07455" cy="190.26017" r="0.88625"></circle><circle class="as" cx="500.45206" cy="187.63836" r="0.88625"></circle><circle class="as" cx="494.02636" cy="184.642" r="0.88625"></circle><circle class="as" cx="487.60065" cy="181.64565" r="0.88625"></circle><circle class="as" cx="481.17495" cy="178.64929" r="0.88625"></circle><circle class="as" cx="474.74925" cy="175.65294" r="0.88625"></circle><circle class="as" cx="469.12675" cy="173.03113" r="0.88625"></circle><circle class="as" cx="462.70105" cy="170.03477" r="0.88625"></circle><circle class="as" cx="456.27535" cy="167.03842" r="0.88625"></circle><circle class="as" cx="547.25491" cy="217.28581" r="0.88625"></circle><circle class="as" cx="540.82921" cy="214.28946" r="0.88625"></circle><circle class="as" cx="534.40351" cy="211.2931" r="0.88625"></circle><circle class="as" cx="527.9778" cy="208.29675" r="0.88625"></circle><circle class="as" cx="522.35531" cy="205.67494" r="0.88625"></circle><circle class="as" cx="515.92961" cy="202.67858" r="0.88625"></circle><circle class="as" cx="509.5039" cy="199.68223" r="0.88625"></circle><circle class="as" cx="503.0782" cy="196.68587" r="0.88625"></circle><circle class="as" cx="497.45571" cy="194.06406" r="0.88625"></circle><circle class="as" cx="491.03" cy="191.06771" r="0.88625"></circle><circle class="as" cx="484.6043" cy="188.07135" r="0.88625"></circle><circle class="as" cx="478.17859" cy="185.075" r="0.88625"></circle><circle class="as" cx="471.75289" cy="182.07864" r="0.88625"></circle><circle class="as" cx="466.1304" cy="179.45683" r="0.88625"></circle><circle class="as" cx="459.7047" cy="176.46048" r="0.88625"></circle><circle class="as" cx="453.27899" cy="173.46412" r="0.88625"></circle><circle class="as" cx="544.25856" cy="223.71152" r="0.88625"></circle><circle class="as" cx="537.83286" cy="220.71516" r="0.88625"></circle><circle class="as" cx="531.40715" cy="217.71881" r="0.88625"></circle><circle class="as" cx="524.98145" cy="214.72245" r="0.88625"></circle><circle class="as" cx="519.35896" cy="212.10064" r="0.88625"></circle><circle class="as" cx="512.93325" cy="209.10429" r="0.88625"></circle><circle class="as" cx="506.50755" cy="206.10793" r="0.88625"></circle><circle class="as" cx="500.08184" cy="203.11158" r="0.88625"></circle><circle class="as" cx="494.45935" cy="200.48977" r="0.88625"></circle><circle class="as" cx="488.03365" cy="197.49341" r="0.88625"></circle><circle class="as" cx="481.60794" cy="194.49706" r="0.88625"></circle><circle class="as" cx="475.18224" cy="191.5007" r="0.88625"></circle><circle class="as" cx="468.75654" cy="188.50435" r="0.88625"></circle><circle class="as" cx="463.13404" cy="185.88254" r="0.88625"></circle><circle class="as" cx="456.70834" cy="182.88618" r="0.88625"></circle><circle class="as" cx="450.28264" cy="179.88983" r="0.88625"></circle><circle class="as" cx="541.2622" cy="230.13722" r="0.88625"></circle><circle class="as" cx="534.8365" cy="227.14087" r="0.88625"></circle><circle class="as" cx="528.4108" cy="224.14451" r="0.88625"></circle><circle class="as" cx="521.98509" cy="221.14816" r="0.88625"></circle><circle class="as" cx="516.3626" cy="218.52635" r="0.88625"></circle><circle class="as" cx="509.9369" cy="215.52999" r="0.88625"></circle><circle class="as" cx="503.51119" cy="212.53364" r="0.88625"></circle><circle class="as" cx="497.08549" cy="209.53728" r="0.88625"></circle><circle class="as" cx="491.463" cy="206.91547" r="0.88625"></circle><circle class="as" cx="485.03729" cy="203.91912" r="0.88625"></circle><circle class="as" cx="478.61159" cy="200.92276" r="0.88625"></circle><circle class="as" cx="472.18588" cy="197.92641" r="0.88625"></circle><circle class="as" cx="465.76018" cy="194.93005" r="0.88625"></circle><circle class="as" cx="460.13769" cy="192.30824" r="0.88625"></circle><circle class="as" cx="453.71199" cy="189.31189" r="0.88625"></circle><circle class="as" cx="447.28628" cy="186.31553" r="0.88625"></circle><circle class="as" cx="538.26585" cy="236.56293" r="0.88625"></circle><circle class="as" cx="531.84015" cy="233.56657" r="0.88625"></circle><circle class="as" cx="525.41444" cy="230.57022" r="0.88625"></circle><circle class="as" cx="518.98874" cy="227.57386" r="0.88625"></circle><circle class="as" cx="513.36625" cy="224.95205" r="0.88625"></circle><circle class="as" cx="506.94054" cy="221.9557" r="0.88625"></circle><circle class="as" cx="500.51484" cy="218.95934" r="0.88625"></circle><circle class="as" cx="494.08913" cy="215.96299" r="0.88625"></circle><circle class="as" cx="488.46664" cy="213.34118" r="0.88625"></circle><circle class="as" cx="482.04094" cy="210.34482" r="0.88625"></circle><circle class="as" cx="475.61523" cy="207.34847" r="0.88625"></circle><circle class="as" cx="469.18953" cy="204.35211" r="0.88625"></circle><circle class="as" cx="462.76383" cy="201.35576" r="0.88625"></circle><circle class="as" cx="457.14133" cy="198.73395" r="0.88625"></circle><circle class="as" cx="450.71563" cy="195.73759" r="0.88625"></circle><circle class="as" cx="444.28993" cy="192.74123" r="0.88625"></circle><circle class="as" cx="538.26585" cy="236.56293" r="0.88625"></circle><circle class="as" cx="531.84015" cy="233.56657" r="0.88625"></circle><circle class="as" cx="525.41444" cy="230.57022" r="0.88625"></circle><circle class="as" cx="518.98874" cy="227.57386" r="0.88625"></circle><circle class="as" cx="513.36625" cy="224.95205" r="0.88625"></circle><circle class="as" cx="506.94054" cy="221.9557" r="0.88625"></circle><circle class="as" cx="500.51484" cy="218.95934" r="0.88625"></circle><circle class="as" cx="494.08913" cy="215.96299" r="0.88625"></circle><circle class="as" cx="488.46664" cy="213.34118" r="0.88625"></circle><circle class="as" cx="482.04094" cy="210.34482" r="0.88625"></circle><circle class="as" cx="475.61523" cy="207.34847" r="0.88625"></circle><circle class="as" cx="469.18953" cy="204.35211" r="0.88625"></circle><circle class="as" cx="462.76383" cy="201.35576" r="0.88625"></circle><circle class="as" cx="457.14133" cy="198.73395" r="0.88625"></circle><circle class="as" cx="450.71563" cy="195.73759" r="0.88625"></circle><circle class="as" cx="444.28993" cy="192.74123" r="0.88625"></circle><circle class="as" cx="535.64404" cy="242.18542" r="0.88625"></circle><circle class="as" cx="529.21833" cy="239.18906" r="0.88625"></circle><circle class="as" cx="522.79263" cy="236.19271" r="0.88625"></circle><circle class="as" cx="516.36693" cy="233.19635" r="0.88625"></circle><circle class="as" cx="510.74444" cy="230.57454" r="0.88625"></circle><circle class="as" cx="504.31873" cy="227.57819" r="0.88625"></circle><circle class="as" cx="497.89303" cy="224.58183" r="0.88625"></circle><circle class="as" cx="491.46732" cy="221.58548" r="0.88625"></circle><circle class="as" cx="485.84483" cy="218.96367" r="0.88625"></circle><circle class="as" cx="479.41913" cy="215.96731" r="0.88625"></circle><circle class="as" cx="472.99342" cy="212.97096" r="0.88625"></circle><circle class="as" cx="466.56772" cy="209.9746" r="0.88625"></circle><circle class="as" cx="460.14201" cy="206.97825" r="0.88625"></circle><circle class="as" cx="454.51952" cy="204.35644" r="0.88625"></circle><circle class="as" cx="448.09382" cy="201.36008" r="0.88625"></circle><circle class="as" cx="441.66812" cy="198.36373" r="0.88625"></circle><circle class="as" cx="532.64768" cy="248.61112" r="0.88625"></circle><circle class="as" cx="526.22198" cy="245.61477" r="0.88625"></circle><circle class="as" cx="519.79628" cy="242.61841" r="0.88625"></circle><circle class="as" cx="513.37057" cy="239.62206" r="0.88625"></circle><circle class="as" cx="507.74808" cy="237.00025" r="0.88625"></circle><circle class="as" cx="501.32238" cy="234.00389" r="0.88625"></circle><circle class="as" cx="494.89667" cy="231.00754" r="0.88625"></circle><circle class="as" cx="488.47097" cy="228.01118" r="0.88625"></circle><circle class="as" cx="482.84848" cy="225.38937" r="0.88625"></circle><circle class="as" cx="476.42277" cy="222.39302" r="0.88625"></circle><circle class="as" cx="469.99707" cy="219.39666" r="0.88625"></circle><circle class="as" cx="463.57136" cy="216.40031" r="0.88625"></circle><circle class="as" cx="457.14566" cy="213.40395" r="0.88625"></circle><circle class="as" cx="451.52317" cy="210.78214" r="0.88625"></circle><circle class="as" cx="445.09746" cy="207.78579" r="0.88625"></circle><circle class="as" cx="438.67176" cy="204.78943" r="0.88625"></circle><circle class="as" cx="529.65133" cy="255.03683" r="0.88625"></circle><circle class="as" cx="523.22562" cy="252.04047" r="0.88625"></circle><circle class="as" cx="516.79992" cy="249.04412" r="0.88625"></circle><circle class="as" cx="510.37422" cy="246.04776" r="0.88625"></circle><circle class="as" cx="504.75173" cy="243.42595" r="0.88625"></circle><circle class="as" cx="498.32602" cy="240.4296" r="0.88625"></circle><circle class="as" cx="491.90032" cy="237.43324" r="0.88625"></circle><circle class="as" cx="485.47461" cy="234.43689" r="0.88625"></circle><circle class="as" cx="479.85212" cy="231.81508" r="0.88625"></circle><circle class="as" cx="473.42642" cy="228.81872" r="0.88625"></circle><circle class="as" cx="467.00071" cy="225.82237" r="0.88625"></circle><circle class="as" cx="460.57501" cy="222.82601" r="0.88625"></circle><circle class="as" cx="454.1493" cy="219.82966" r="0.88625"></circle><circle class="as" cx="448.52681" cy="217.20784" r="0.88625"></circle><circle class="as" cx="442.10111" cy="214.21149" r="0.88625"></circle><circle class="as" cx="435.67541" cy="211.21513" r="0.88625"></circle><circle class="as" cx="526.65497" cy="261.46253" r="0.88625"></circle><circle class="as" cx="520.22927" cy="258.46618" r="0.88625"></circle><circle class="as" cx="513.80357" cy="255.46982" r="0.88625"></circle><circle class="as" cx="507.37786" cy="252.47347" r="0.88625"></circle><circle class="as" cx="501.75537" cy="249.85166" r="0.88625"></circle><circle class="as" cx="495.32967" cy="246.8553" r="0.88625"></circle><circle class="as" cx="488.90396" cy="243.85895" r="0.88625"></circle><circle class="as" cx="482.47826" cy="240.86259" r="0.88625"></circle><circle class="as" cx="476.85577" cy="238.24078" r="0.88625"></circle><circle class="as" cx="470.43006" cy="235.24442" r="0.88625"></circle><circle class="as" cx="464.00436" cy="232.24807" r="0.88625"></circle><circle class="as" cx="457.57865" cy="229.25171" r="0.88625"></circle><circle class="as" cx="451.15295" cy="226.25536" r="0.88625"></circle><circle class="as" cx="445.53046" cy="223.63355" r="0.88625"></circle><circle class="as" cx="439.10475" cy="220.63719" r="0.88625"></circle><circle class="as" cx="432.67905" cy="217.64084" r="0.88625"></circle><circle class="as" cx="524.03316" cy="267.08502" r="0.88625"></circle><circle class="as" cx="517.60746" cy="264.08867" r="0.88625"></circle><circle class="as" cx="511.18175" cy="261.09231" r="0.88625"></circle><circle class="as" cx="504.75605" cy="258.09596" r="0.88625"></circle><circle class="as" cx="499.13356" cy="255.47415" r="0.88625"></circle><circle class="as" cx="492.70786" cy="252.47779" r="0.88625"></circle><circle class="as" cx="486.28215" cy="249.48144" r="0.88625"></circle><circle class="as" cx="479.85645" cy="246.48508" r="0.88625"></circle><circle class="as" cx="474.23396" cy="243.86327" r="0.88625"></circle><circle class="as" cx="467.80825" cy="240.86692" r="0.88625"></circle><circle class="as" cx="461.38255" cy="237.87056" r="0.88625"></circle><circle class="as" cx="454.95684" cy="234.87421" r="0.88625"></circle><circle class="as" cx="448.53114" cy="231.87785" r="0.88625"></circle><circle class="as" cx="442.90865" cy="229.25604" r="0.88625"></circle><circle class="as" cx="436.48294" cy="226.25968" r="0.88625"></circle><circle class="as" cx="430.05724" cy="223.26333" r="0.88625"></circle><circle class="as" cx="521.03681" cy="273.51073" r="0.88625"></circle><circle class="as" cx="514.6111" cy="270.51437" r="0.88625"></circle><circle class="as" cx="508.1854" cy="267.51802" r="0.88625"></circle><circle class="as" cx="501.7597" cy="264.52166" r="0.88625"></circle><circle class="as" cx="496.1372" cy="261.89985" r="0.88625"></circle><circle class="as" cx="489.7115" cy="258.9035" r="0.88625"></circle><circle class="as" cx="483.2858" cy="255.90714" r="0.88625"></circle><circle class="as" cx="476.86009" cy="252.91079" r="0.88625"></circle><circle class="as" cx="471.2376" cy="250.28897" r="0.88625"></circle><circle class="as" cx="464.8119" cy="247.29262" r="0.88625"></circle><circle class="as" cx="458.38619" cy="244.29626" r="0.88625"></circle><circle class="as" cx="451.96049" cy="241.29991" r="0.88625"></circle><circle class="as" cx="445.53478" cy="238.30355" r="0.88625"></circle><circle class="as" cx="439.91229" cy="235.68174" r="0.88625"></circle><circle class="as" cx="433.48659" cy="232.68539" r="0.88625"></circle><circle class="as" cx="427.06088" cy="229.68903" r="0.88625"></circle><circle class="as" cx="518.04045" cy="279.93643" r="0.88625"></circle><circle class="as" cx="511.61475" cy="276.94008" r="0.88625"></circle><circle class="as" cx="505.18904" cy="273.94372" r="0.88625"></circle><circle class="as" cx="498.76334" cy="270.94737" r="0.88625"></circle><circle class="as" cx="493.14085" cy="268.32555" r="0.88625"></circle><circle class="as" cx="486.71515" cy="265.3292" r="0.88625"></circle><circle class="as" cx="480.28944" cy="262.33284" r="0.88625"></circle><circle class="as" cx="473.86374" cy="259.33649" r="0.88625"></circle><circle class="as" cx="468.24125" cy="256.71468" r="0.88625"></circle><circle class="as" cx="461.81554" cy="253.71832" r="0.88625"></circle><circle class="as" cx="455.38984" cy="250.72197" r="0.88625"></circle><circle class="as" cx="448.96413" cy="247.72561" r="0.88625"></circle><circle class="as" cx="442.53843" cy="244.72926" r="0.88625"></circle><circle class="as" cx="436.91594" cy="242.10745" r="0.88625"></circle><circle class="as" cx="430.49023" cy="239.11109" r="0.88625"></circle><circle class="as" cx="424.06453" cy="236.11474" r="0.88625"></circle></g></g><path class="ag" d="M494.33029,175.746H492.5578m6.20373,0,8.05657-2.15905" transform="translate(-5.18622 0.00058)"></path><path class="at" d="M397.97615,225.02377a7.02467,7.02467,0,0,1-1.485-5.71612q-3.535-1.3148-2.08435-5.4604c1.45062-4.1456,5.93954.20246,11.29706-2.54967s8.33456-1.3107,8.33456,1.69036q4.32144,0,5.47867,5.5642c1.15723,5.5642-3.12924,16.74263-5.47867,16.019C411.77525,233.874,399.8797,227.47184,397.97615,225.02377Z" transform="translate(-5.18622 0.00058)"></path><path class="au" d="M398.069,220.64124c-1.55808,13.209,2.59248,21.64472,7.9369,19.81608q.94569,1.91211-.34806,7.9189c-1.22893,5.7058,2.89934,8.23436,5.60074,7.90161s7.09586-5.9156,7.09586-9.78638q0-1.77165-2.05953-11.07162a32.74694,32.74694,0,0,1-.369-3.91694c0-2.212.14955-2.86522.369-3.22142,1.92609-3.12576.09049-4.71536-1.18029-4.16721s-1.4277,2.52845-1.52532,2.88634-.12866,1.91014-.678-.4881-1.36238-2.01029-2.14632-3.33593-.66167-2.99682-1.95718-3.28831c-2.01765-.454-5.5409,1.29485-7.92232,1.4255A4.93233,4.93233,0,0,1,398.069,220.64124Z" transform="translate(-5.18622 0.00058)"></path><g class="av"><path class="aa" d="M406.00593,240.45732a8.0078,8.0078,0,0,0,4.97032-3.64237q-.17035,8.67211-5.54112,9.77833T406.00593,240.45732Z" transform="translate(-5.18622 0.00058)"></path></g><circle class="aw" cx="393.42934" cy="227.5935" r="2.65874"></circle><circle class="aw" cx="400.51932" cy="227.5935" r="2.65874"></circle><path class="aw" d="M401.2743,227.59291h1.7725m5.22549,0,5.22124-2.31653" transform="translate(-5.18622 0.00058)"></path><path class="ax" d="M418.21635,244.85728a10.8849,10.8849,0,0,1-2.28256,5.84569c-1.69581,1.84313-6.598,3.57874-8.69194,1.48869q-2.0939-2.09007-1.1723-5.82776l-4.9836.421a14.35723,14.35723,0,0,0-11.72676,8.07665l-11.61881,24.12553h0l13.00571,6.02862,3.0136-5.72678A319.70084,319.70084,0,0,0,392.0078,311.71l38.91692,1.326a182.656,182.656,0,0,1-1.6358-18.26289q0-4.87622,1.00661-15.48418l.84549,3.43047,14.92786-1.69616q-3.97517-24.67767-9.50563-29.48538T418.21635,244.85728Z" transform="translate(-5.18622 0.00058)"></path><g class="ay"><path class="az" d="M431.13267,313.55892l-40.226-1.3833q29.09422-7.88461,30.997-16.8179t4.818-29.16964l3.63572,4.24615v9.43187Z" transform="translate(-5.18622 0.00058)"></path></g><g class="ba"><polygon class="az" points="388.574 280.806 389.999 267.548 381.443 283.933 386.339 286.299 388.574 280.806"></polygon></g><path class="au" d="M431.943,282.606l1.53954,7.18388-17.21331-.97614q-8.69385-2.21532-11.228-1.7433a17.28554,17.28554,0,0,0-5.97478,2.71944q-2.79864,3.88307-2.07455,4.386t3.15639-2.8926l3.7634-1.33427a9.91867,9.91867,0,0,0-3.04467,1.75356c-.42239.56955-2.07629,4.12835-1.39751,4.56513q.67878.43679,2.49434-3.29384l3.38925-1.2271q-3.08188,1.52664-3.08188,2.11955c0,.59291-.69779,4.02545,0,3.90488q.69778-.12058,1.20732-3.06l2.92628-1.00415q-1.91022.97692-2.03247,1.63978c-.12225.66286-.43,2.197-.0904,2.31068s.99691-1.306,1.21246-1.9489a31.64756,31.64756,0,0,0,8.15182-1.84522q19.59152,7.77186,24.81377,8.602c5.22224.83011,7.45708-3.29156,7.45708-7.39119q0-4.09962-1.06086-13.91515Z" transform="translate(-5.18622 0.00058)"></path><g class="bb"><path class="bc" d="M413.66553,293.8848q22.01073,7.42055,27.947,6.31853t4.7969-13.13291l.40405,14.45366-7.04361,5.07813-22.101-8.86067Z" transform="translate(-5.18622 0.00058)"></path></g><path class="au" d="M379.60488,279.83454l10.51246,4.898q-5.1142,11.16759-9.80911,12.61458a60.75138,60.75138,0,0,1-8.39936,1.86694q-5.58317.82683-24.15722,2.61814H331.30351q1.76558-6.417,15.58625-3.91237L375.87513,287.608Z" transform="translate(-5.18622 0.00058)"></path><g class="bd"><path class="be" d="M338.21643,301.83222q-.17934-1.63759,1.29125-1.6376h6.61608" transform="translate(-5.18622 0.00058)"></path></g><g class="bd"><path class="be" d="M333.78519,301.83222q-.38436-2.35735,2.1775-2.52385a64.93119,64.93119,0,0,1,6.61608,0" transform="translate(-5.18622 0.00058)"></path></g><polygon class="au" points="323.302 373.365 315.359 389.481 322.737 394.073 325.514 392.454 333.355 375.006 323.302 373.365"></polygon><g class="bf"><polygon class="aa" points="316.632 377.235 328.665 386.607 331.317 379.805 316.632 377.235"></polygon></g><path class="ai" d="M332.89133,387.77q-4.03908,4.66878-11.94366,0-9.67709,7.35834-13.87406,8.118c-4.197.75964-6.83152,1.33766-6.83152,4.2278h19.15738l6.60154-4.2278v4.2278h6.89032a18.9478,18.9478,0,0,0,0-12.34577Z" transform="translate(-5.18622 0.00058)"></path><polygon class="au" points="367.285 379.761 371.586 389.866 381.12 391.766 382.659 388.453 379.33 377.369 367.285 379.761"></polygon><g class="bg"><polygon class="aa" points="366.845 380.413 382.244 384.947 379.907 377.651 366.845 380.413"></polygon></g><path class="ai" d="M387.83867,387.77q-4.03906,4.66878-11.94366,0-9.67708,7.35834-13.87405,8.118c-4.197.75964-6.83153,1.33767-6.83153,4.2278h19.15738l6.60154-4.2278v4.2278h6.89032a18.94763,18.94763,0,0,0,0-12.34577Z" transform="translate(-5.18622 0.00058)"></path><path class="bh" d="M388.17245,312.67182q-26.76968-2.15954-33.97387,5.3179T322.16519,378.3319l16.39005,2.08,25.44984-41.9004,9.2269-5.715Z" transform="translate(-5.18622 0.00058)"></path><g class="bi"><path class="bj" d="M368.902,328.22034q-3.96439.77763-10.04434,9.98111T336.3146,376.0273m8.098,1.16613-24.52959-3.465" transform="translate(-5.18622 0.00058)"></path></g><path class="bk" d="M430.83729,310.82384q2.60811,25.96932-19.41636,24.87776t-38.22575-6.54508l13.34844,50.16687L371.45177,380.429q-21.71618-55.73079-15.78084-64.862,3.97546-6.11606,36.35263-5.33748Q402.66455,310.48534,430.83729,310.82384Z" transform="translate(-5.18622 0.00058)"></path><g class="bl"><path class="bj" d="M432.54269,314.35084l-41.129-4.47042m32.15745.94342q-.07368,18.75568-19.58869,15.9343c-19.515-2.82137-40.65146-10.20934-39.03747-1.29885q1.614,8.91051,17.68181,50.19225m6.92308,0H367.69111" transform="translate(-5.18622 0.00058)"></path></g><polyline class="bm" points="283.921 400.108 283.921 300.71 443.945 300.71 443.945 400.108"></polyline><polyline class="bm" points="326.461 400.108 326.461 300.71 486.485 300.71 486.485 400.108"></polyline><rect class="j" x="269.35469" y="298.05157" width="160.4108" height="5.31748"></rect><rect class="bn" x="429.76548" y="298.05157" width="70.8998" height="5.31748"></rect><path class="x" d="M109.81824,175.19068q2.25866-5.44318.93078-9.462t-6.57115-3.55995q-5.09121-5.75514-11.206-2.17421C86.857,163.57546,86.857,170.277,89.043,175.07074c-4.77494-.05292-4.77494,6.53625-2.329,6.53625-8.95646-1.94628-10.17989,8.92813-4.15882,10.38714-11.54172-1.387-20.14208,17.16094-7.07912,22.84661s15.7548-2.1504,21.03317-10.42777c1.84215-2.88881,17.35081-4.9813,14.23974-13.75941q-1.58625-4.47573-5.86506-4.0405,3.40876-5.89729,3.46089-6.06394A38.18509,38.18509,0,0,0,109.81824,175.19068Z" transform="translate(-5.18622 0.00058)"></path><path class="bo" d="M108.93048,171.75018q1.8722,14.80865-5.9246,16.36126.97966,3.224,4.994,7.018c4.01436,3.794-3.27047,7.30884-9.67676,3.11148q-6.40627-4.19736-8.0616-6.22711,5.98623-1.65741,3.88178-11.96809-4.34744-2.72825-3.88178-5.26348t3.99866.69516a8.21436,8.21436,0,0,0,4.06294-2.9041,14.61893,14.61893,0,0,0,1.73739-5.71751h0a.88628.88628,0,0,1,.82722-.75466,8.84989,8.84989,0,0,1,5.66852,1.26773A5.21832,5.21832,0,0,1,108.93048,171.75018Z" transform="translate(-5.18622 0.00058)"></path><g class="bp"><path class="au" d="M103.58715,188.115a6.08749,6.08749,0,0,1-5.27427-2.26863q.77446,5.52331,8.52618,8.03029T103.58715,188.115Z" transform="translate(-5.18622 0.00058)"></path></g><path class="bq" d="M119.1934,250.86862H80.44251l5.51182-18.49318L82.3091,221.21509l-.326,4.854-13.06625-2.0245,3.3279-16.60544a15.06621,15.06621,0,0,1,8.14139-10.56792l11.80963-5.78857h0l11.385,8.05247,2.75874-5.6976,4.43818.58514a13.2937,13.2937,0,0,1,10.67157,8.41156l4.9985,13.00885h-7.83356q3.91361,7.493-.60857,13.98243Q118.7338,238.64857,119.1934,250.86862Z" transform="translate(-5.18622 0.00058)"></path><g class="br"><circle class="bs" cx="98.39312" cy="203.04761" r="0.88625"></circle></g><g class="br"><circle class="bs" cx="98.39312" cy="206.5926" r="0.88625"></circle></g><g class="bt"><path class="bu" d="M79.71963,251.34751l42.82966,2.655L118.816,213.579l-12.91649-17.8318-1.877,1.42527a32.41118,32.41118,0,0,0,1.877,4.32979,19.57026,19.57026,0,0,0,2.35042,3.194l8.24339,21.6842q-4.88166,2.951-8.24339,3.26551c-6.86057.6418-12.89469-.65465-14.64852-.76278Q83.832,228.28091,82.2812,213.579v6.13887l.307,11.01994Z" transform="translate(-5.18622 0.00058)"></path></g><g class="br"><polygon class="bv" points="111.929 206.712 110.561 210.863 113.629 215.798 111.929 211.213 111.929 206.712"></polygon></g><g class="br"><polyline class="bs" points="83.93 191.935 96.448 202.016 98.321 199.395 101.448 202.016 103.547 193.466"></polyline></g><g class="br"><path class="bs" d="M103.57934,208.9645v4.42656" transform="translate(-5.18622 0.00058)"></path></g><rect class="bw" x="100.69992" y="230.59425" width="15.95245" height="8.86247" rx="0.88625" transform="translate(-143.02801 314.24977) rotate(-83)"></rect><path class="bx" d="M106.77419,226.83321l6.3822.71575a.88626.88626,0,0,1,.782.9795l-.00109.00923-1.72809,14.07417a.88624.88624,0,0,1-.97841.77272l-6.3822-.71575a.88625.88625,0,0,1-.782-.9795l.00109-.00923,1.72809-14.07417A.88625.88625,0,0,1,106.77419,226.83321Z" transform="translate(-5.18622 0.00058)"></path><circle class="bw" cx="104.06953" cy="232.91238" r="1.32937"></circle><path class="by" d="M112.9625,228.93315h0a.44313.44313,0,0,1,.38582.49382l-.216,1.75929a.44311.44311,0,0,1-.49382.38581h0a.44312.44312,0,0,1-.38582-.49382l.216-1.75928A.44313.44313,0,0,1,112.9625,228.93315Z" transform="translate(-5.18622 0.00058)"></path><circle class="bz" cx="107.72227" cy="229.37355" r="0.88625"></circle><circle class="bz" cx="107.61426" cy="230.2532" r="0.88625"></circle><path class="bo" d="M128.00733,396.151a9.24391,9.24391,0,0,1-3.41627-2.84017c-2.76453-4.48367-3.7007-10.65261-3.134-16.43792h-5.75276a10.07051,10.07051,0,0,1-1.22328,3.98562c-1.01485,1.82007-1.90491,3.66645-1.45988,4.9989q.445,1.33245,7.79689,11.86794Z" transform="translate(-5.18622 0.00058)"></path><g class="ca"><polygon class="au" points="117.995 378.021 108.503 381.981 109.049 377.186 117.995 378.021"></polygon></g><path class="ai" d="M112.99911,384.074q-1.83792.27621-1.83792,3.2252v13.189h1.74264l.58025-8.33643,3.35669,6.088a4.43126,4.43126,0,0,0,3.80685,2.29108l11.66071.19383h0q3.32431.00882.51347-2.129a22.87822,22.87822,0,0,0-6.15631-3.339,4.29118,4.29118,0,0,1-5.71408,1.10635Q117.62854,394.68909,112.99911,384.074Z" transform="translate(-5.18622 0.00058)"></path><path class="bo" d="M101.233,395.15092a9.244,9.244,0,0,1-3.69443-2.46751c-3.21806-4.17014-4.79392-10.20743-4.835-16.02029l-5.72125.60133a10.07065,10.07065,0,0,1-.8,4.09165c-.81905,1.91618-1.51124,3.84548-.92937,5.12411q.58188,1.27865,8.99472,10.98794Z" transform="translate(-5.18622 0.00058)"></path><g class="cb"><polygon class="au" points="88.533 378.239 80.47 382.989 80.512 378.164 88.533 378.239"></polygon></g><path class="ai" d="M85.04465,384.7088q-1.799.46681-1.49073,3.39965t1.37862,12.23049l1.7331-.18216-.29432-7.46516,3.97465,5.70377a4.43124,4.43124,0,0,0,4.02552,1.8806l11.61706-1.02622h0q3.307-.33857.28812-2.17091a22.87844,22.87844,0,0,0-6.47161-2.67721,4.29118,4.29118,0,0,1-5.56713,1.69757Q90.75829,394.78186,85.04465,384.7088Z" transform="translate(-5.18622 0.00058)"></path><path class="bk" d="M119.19389,250.86894l10.01194,74.84157L125.8193,377.899l-12.20686.31911-1.33116-50.29854-10.51683-46.64512-.90624,51.67741-5.1116,45.62161H84.766V334.23489q-5.59637-37.68846-5.59636-53.9582-4.88039-18.667,1.27331-29.40775Z" transform="translate(-5.18622 0.00058)"></path><g class="cc"><path class="cd" d="M105.15548,270.38712l-3.391,10.88729m18.25776-27.2716H79.16968m25.9858,0v10.37727a1.69552,1.69552,0,0,1-3.391,0V254.00281h0m12.06125-3.13387v3.13387q.53337,9.18392,4.89222,10.12693l8.79484,61.26193-3.484,50.03193" transform="translate(-5.18622 0.00058)"></path></g><g class="cc"><path class="bj" d="M106.60833,250.86894v3.13387" transform="translate(-5.18622 0.00058)"></path></g><g class="cc"><path class="ce" d="M100.1929,250.86894v3.13387m-8.82123-3.13387v3.13387L86.74576,265.617l-5.97341,9.14327q.40867,20.97866,1.51826,28.64628,2.03906,14.09064,4.45515,30.03369l-.41535,42.64067" transform="translate(-5.18622 0.00058)"></path></g><g class="cc"><path class="bj" d="M126.148,375.4236H113.34335m-16.99584.65729H84.34514" transform="translate(-5.18622 0.00058)"></path></g><path class="cf" d="M111.81565,183.85381l.2166,16.47592" transform="translate(-5.18622 0.00058)"></path><path class="bo" d="M68.20027,245.84794c.85866,1.34116,4.48953,2.689,10.23934,2.689q5.54784,0,22.69485-3.60579a26.69062,26.69062,0,0,0,9.58761-.82953q3.73656-1.192,2.57233-6.31772,1.08566-1.58177-.21733-1.91989l-1.2029.72872q-5.05458.7908-6.19713.93071a1.50752,1.50752,0,0,1-1.64324-.74016l.1915-1.92979a8.143,8.143,0,0,0-4.01618,4.49209q-4.21839,1.773-22.23331-.49019l3.39189-12.89008-11.54335-1.78836Q65.01513,240.873,68.20027,245.84794Z" transform="translate(-5.18622 0.00058)"></path><g class="cg"><path class="au" d="M79.0425,225.629l-3.69067,14.27464q14.05392,2.54808,24.85729-.5581L78.69329,238.1019l3.28978-12.03244Z" transform="translate(-5.18622 0.00058)"></path></g><g class="ch"><path class="ad" d="M113.72854,237.97118a7.51616,7.51616,0,0,1-1.43318.69468,12.52277,12.52277,0,0,1-1.86512.36847m3.2983.70935a7.51616,7.51616,0,0,1-1.43318.69468,12.52408,12.52408,0,0,1-1.86512.36847m3.2983.70934a7.51616,7.51616,0,0,1-1.43318.69468,12.52277,12.52277,0,0,1-1.86512.36847" transform="translate(-5.18622 0.00058)"></path></g><path class="ci" d="M120.93045,215.45226h5.14173q4.1105,10.26984,3.50884,14.80045T120.93045,215.45226Z" transform="translate(-5.18622 0.00058)"></path><path class="bo" d="M114.5591,203.82948a9.83911,9.83911,0,0,0,1.76742,3.38179c.68838.92837,3.82271,4.73474,7.14371,9.28863,3.481,4.77328,7.12949,10.384,6.70537,15.08218-.82875,9.18047-10.585.693-13.84908-7.4056q-3.26406-8.09864-6.06465-17.14145-4.804-6.18239-4.3991-11.83116.01671-1.40566.46547-1.15615-.21872-1.08093.36212-1.17627-.027-1.18512.59893-1.19659-.25006-.8085.13443-1.10791t1.30961.19094a7.81745,7.81745,0,0,1,1.76207,1.66816,31.18456,31.18456,0,0,1,2.2388,3.11074,2.98,2.98,0,0,0-.22271-1.12894c-.2448-.66864-.18892-1.89041.46279-1.9818a5.69033,5.69033,0,0,0,.55975,1.26434c.305.48239,1.77613,2.93366,1.55829,4.42571a29.05779,29.05779,0,0,0-.53322,3.2018Q114.5023,201.99418,114.5591,203.82948Z" transform="translate(-5.18622 0.00058)"></path><g class="cj"><path class="ad" d="M107.13194,191.50126l2.92439,3.70261m-3.556-2.64182,2.511,3.8276m-2.907-2.59843,1.3914,3.88526" transform="translate(-5.18622 0.00058)"></path></g><g class="ck"><path class="au" d="M114.48542,203.30722q-.43239,3.59587,3.00632,7.87046c3.43871,4.27458,11.72771,14.98541,11.72771,23.84789q2.79656-.97435,2.18483-5.04593a21.33964,21.33964,0,0,0-2.63852-7.578l-9.94945-13.97475Z" transform="translate(-5.18622 0.00058)"></path></g><path class="az" d="M387.80334,168.24222h-44.0465a3.72224,3.72224,0,0,0-3.72224,3.72224v19.50225a3.72224,3.72224,0,0,0,3.72224,3.72224h33.69567l9.26768,7.79417V195.189h1.08315a3.72224,3.72224,0,0,0,3.72224-3.72224V171.96446A3.72224,3.72224,0,0,0,387.80334,168.24222Z" transform="translate(-5.18622 0.00058)"></path><circle class="b" cx="370.20965" cy="181.89101" r="1.86112"></circle><circle class="b" cx="360.28368" cy="181.89101" r="1.86112"></circle><circle class="b" cx="350.35771" cy="181.89101" r="1.86112"></circle><path class="ao" d="M475.54184,125.23272H431.49535a3.72224,3.72224,0,0,0-3.72224,3.72224v19.50225a3.72224,3.72224,0,0,0,3.72224,3.72224H465.191l9.26768,7.79417v-7.79417h1.08315a3.72224,3.72224,0,0,0,3.72224-3.72224V128.955A3.72224,3.72224,0,0,0,475.54184,125.23272Z" transform="translate(-5.18622 0.00058)"></path><circle class="b" cx="457.94815" cy="138.88152" r="1.86112"></circle><circle class="b" cx="448.02218" cy="138.88152" r="1.86112"></circle><circle class="b" cx="438.09621" cy="138.88152" r="1.86112"></circle><path class="cl" d="M293.04832,232.3129h61.72453a2.84883,2.84883,0,0,1,2.84883,2.84883v43.682a2.84884,2.84884,0,0,1-2.84883,2.84883H293.04832a2.84883,2.84883,0,0,1-2.84882-2.84883v-43.682A2.84882,2.84882,0,0,1,293.04832,232.3129Z" transform="translate(-5.18622 0.00058)"></path><rect class="cm" x="283.11406" y="232.31349" width="67.42218" height="49.37962" rx="2.84882"></rect><g class="cn"><polygon class="co" points="304.955 263.651 313.502 281.693 281.215 281.693 304.955 263.651"></polygon></g><g class="cp"><circle class="b" cx="315.40074" cy="251.30565" r="3.79843"></circle></g><polygon class="cq" points="306.854 263.651 320.149 263.651 315.971 294.902 327.623 295.492 327.623 297.836 315.401 297.836 300.207 297.836 306.854 263.651"></polygon><polygon class="cr" points="304.955 263.651 320.149 263.651 313.502 297.836 298.308 297.836 304.955 263.651"></polygon><circle class="cs" cx="307.80387" cy="285.49154" r="3.79843"></circle><g class="ct"><circle class="b" cx="308.75348" cy="285.49154" r="3.79843"></circle></g><path class="cu" d="M8.196,337.21485a9.20234,9.20234,0,0,1,5.91536,6.85053l3.43207-1.06235-3.06886,2.29764q5.05334,10.42444,12.33461,7.93945c7.28127-2.485,2.69413-12.16356-3.48426-14.993Q17.14652,335.41769,8.196,337.21485Zm.67311-39.77414a13.03645,13.03645,0,0,1,3.29871,8.66312c0,4.78585-.85463,9.76069.8417,14.32581l5.21412-1.06088-4.67727,3.08034q5.20328,10.15824,14.59413,9.1869,6.68128-7.69833,1.76714-19.30961T8.86909,297.44071Zm28.50276,21.15956q-11.05422-29.87844,27.96958-39.87414a26.327,26.327,0,0,0-3.35183,10.44721c-.38908,4.98408-.84352,7.63643-1.50993,9.48986l-9.33018-.76336,8.82122,2.6888A23.37492,23.37492,0,0,1,51.14949,313.291,26.45168,26.45168,0,0,1,37.37185,318.60027ZM68.72305,306.242q-2.25984,7.01237-11.11653,13.5464c-8.8567,6.534-11.75061,9.47314-14.4239,21.43915q1.65981-2.82326,7.64324-4.19864a26.77072,26.77072,0,0,0,10.22177-4.55913L59.5064,327.705l3.056,3.44189a20.67787,20.67787,0,0,0,5.63937-10.7797A53.48359,53.48359,0,0,0,68.72305,306.242ZM42.37454,354.80635q2.55644-13.07221,18.37122-14.01278l-1.17863,3.82257,3.21913-3.82257a19.71167,19.71167,0,0,1,10.33682,3.48977,31.58552,31.58552,0,0,0-8.4939,5.37877Q53.02912,360.54125,42.37454,354.80635Z" transform="translate(-5.18622 0.00058)"></path><path class="cv" d="M60.20881,282.2027q-30.86888,25.54646-26.63218,87.01175m-20.3893-68.90714q17.42915,21.00447,20.3893,70.44424m-19.4525-32.36227q12.7586,6.43067,19.4525,30.82517m33.26358-24.94887q-24.09155,2.58972-33.77488,24.94887" transform="translate(-5.18622 0.00058)"></path><path class="cv" d="M67.63014,311.17865A30.08062,30.08062,0,0,1,56.0669,327.8128c-8.835,6.55532-20.0591,16.806-22.49027,42.93875" transform="translate(-5.18622 0.00058)"></path><path class="bh" d="M15.39284,365.79636h38.905v15.498a19.4525,19.4525,0,1,1-38.905,0v-15.498Z" transform="translate(-5.18622 0.00058)"></path><g class="cw"><path class="cx" d="M14.56884,368.579H55.64091m-41.07207,2.55735H55.64091" transform="translate(-5.18622 0.00058)"></path></g></svg> 