<svg enable-background="new 0 0 549.1 529.1" height="529.1" viewBox="0 0 549.1 529.1" width="549.1" xmlns="http://www.w3.org/2000/svg" xmlns:xlink="http://www.w3.org/1999/xlink"><filter id="a" height="200%" y="-50%"><feGaussianBlur stdDeviation="6"/></filter><linearGradient id="b"><stop offset="0" stop-color="#dedffc"/><stop offset=".535" stop-color="#a0ace0"/><stop offset=".8615" stop-color="#dedffc"/></linearGradient><linearGradient id="c" gradientTransform="matrix(.9997 -.00846766 -.00846766 .7591 6.6077 187.9552)" gradientUnits="userSpaceOnUse" x1="15.0275" x2="174.519" xlink:href="#b" y1="422.0869" y2="422.0869"/><linearGradient id="d"><stop offset="0" stop-color="#ced8ef"/><stop offset="1" stop-color="#ebf0fc"/></linearGradient><linearGradient id="e" gradientUnits="userSpaceOnUse" x1="380.7525" x2="355.8126" xlink:href="#d" y1="139.4002" y2="74.6751"/><linearGradient id="f" gradientUnits="userSpaceOnUse" x1="438.0777" x2="413.1377" xlink:href="#d" y1="117.3116" y2="52.5865"/><linearGradient id="g" gradientUnits="userSpaceOnUse" x1="371.932" x2="414.2245" y1="26.0559" y2="26.0559"><stop offset="0" stop-color="#ff6547"/><stop offset="1" stop-color="#ff9161"/></linearGradient><linearGradient id="h" gradientUnits="userSpaceOnUse" x1="346.2597" x2="304.0993" xlink:href="#d" y1="33.7109" y2="5.802"/><linearGradient id="i"><stop offset="0" stop-color="#2b1727"/><stop offset=".9989" stop-color="#050007"/></linearGradient><linearGradient id="j" gradientUnits="userSpaceOnUse" x1="197.704" x2="261.0548" xlink:href="#i" y1="52.3853" y2="52.3853"/><linearGradient id="k"><stop offset="0" stop-color="#40d7ff"/><stop offset=".9989" stop-color="#fff"/></linearGradient><linearGradient id="l" gradientUnits="userSpaceOnUse" x1="354.212" x2="244.1498" xlink:href="#k" y1="131.2961" y2="56.8302"/><linearGradient id="m"><stop offset="0" stop-color="#33c3ff"/><stop offset=".9997" stop-color="#2049d6"/></linearGradient><linearGradient id="n" gradientUnits="userSpaceOnUse" x1="279.6438" x2="326.4198" xlink:href="#m" y1="117.2927" y2="86.7787"/><linearGradient id="o" gradientUnits="userSpaceOnUse" x1="321.2346" x2="288.5344" xlink:href="#m" y1="87.4109" y2="89.6204"/><linearGradient id="p" gradientUnits="userSpaceOnUse" x1="258.1396" x2="268.7214" xlink:href="#m" y1="171.6511" y2="1.5289"/><linearGradient id="q" gradientUnits="userSpaceOnUse" x1="304.6388" x2="116.7445" xlink:href="#k" y1="163.6594" y2="58.1333"/><linearGradient id="r" gradientUnits="userSpaceOnUse" x1="260.285" x2="270.9109" y1="172.0646" y2="1.2323"><stop offset="0" stop-color="#33c3ff"/><stop offset=".01535899" stop-color="#32c0fd"/><stop offset=".4918" stop-color="#2274c2"/><stop offset=".8315" stop-color="#17449d"/><stop offset=".9997" stop-color="#13318f"/></linearGradient><linearGradient id="s" gradientUnits="userSpaceOnUse" x1="332.9637" x2="145.7435" xlink:href="#k" y1="112.4071" y2="7.2596"/><linearGradient id="t" gradientUnits="userSpaceOnUse" x1="263.9662" x2="292.6065" y1="86.9589" y2="54.6817"><stop offset="0" stop-color="#33c3ff"/><stop offset=".1586" stop-color="#31b7fb"/><stop offset=".447" stop-color="#2c96f0"/><stop offset=".8297" stop-color="#2462df"/><stop offset=".9997" stop-color="#2049d6"/></linearGradient><linearGradient id="u"><stop offset="0" stop-color="#592337"/><stop offset=".9989" stop-color="#7d414e"/></linearGradient><linearGradient id="v" gradientUnits="userSpaceOnUse" x1="320.4825" x2="311.4383" xlink:href="#u" y1="67.3284" y2="29.4062"/><linearGradient id="w" gradientUnits="userSpaceOnUse" x1="321.2871" x2="312.2504" xlink:href="#u" y1="67.1192" y2="29.2288"/><linearGradient id="x"><stop offset=".0008081897" stop-color="#d69ca2"/><stop offset=".9997" stop-color="#8f4d58"/></linearGradient><linearGradient id="y" gradientUnits="userSpaceOnUse" x1="318.5896" x2="295.6073" xlink:href="#x" y1="32.1975" y2="68.3525"/><linearGradient id="z" gradientUnits="userSpaceOnUse" x1="318.7762" x2="292.7722" xlink:href="#x" y1="30.5405" y2="71.4491"/><linearGradient id="A" gradientUnits="userSpaceOnUse" x1="319.4042" x2="310.3676" xlink:href="#u" y1="67.5745" y2="29.6841"/><linearGradient id="B" gradientUnits="userSpaceOnUse" x1="324.1354" x2="349.4565" xlink:href="#u" y1="89.9031" y2="69.91"/><linearGradient id="C" gradientUnits="userSpaceOnUse" x1="319.3129" x2="352.1463" xlink:href="#u" y1="84.8837" y2="68.046"/><linearGradient id="D" gradientUnits="userSpaceOnUse" x1="352.6625" x2="324.4267" y1="70.0835" y2="77.3539"><stop offset=".0008081897" stop-color="#834a49"/><stop offset="1" stop-color="#7c3f44"/></linearGradient><linearGradient id="E" gradientUnits="userSpaceOnUse" x1="320.538" x2="353.6735" xlink:href="#u" y1="87.6837" y2="70.6911"/><linearGradient id="F" gradientUnits="userSpaceOnUse" x1="322.0117" x2="355.2595" xlink:href="#u" y1="90.5478" y2="73.4976"/><linearGradient id="G" gradientUnits="userSpaceOnUse" x1="322.9111" x2="356.5676" xlink:href="#u" y1="92.8238" y2="75.564"/><linearGradient id="H" gradientUnits="userSpaceOnUse" x1="320.4543" x2="345.9754" xlink:href="#u" y1="85.5025" y2="65.3513"/><linearGradient id="I" gradientUnits="userSpaceOnUse" x1="260.0238" x2="259.1706" xlink:href="#u" y1="45.0963" y2="69.4106"/><linearGradient id="J" gradientUnits="userSpaceOnUse" x1="260.5941" x2="259.8242" xlink:href="#u" y1="46.8694" y2="68.8108"/><linearGradient id="K" gradientUnits="userSpaceOnUse" x1="342.4701" x2="178.4811" xlink:href="#u" y1="56.8237" y2="4.713"/><linearGradient id="L" gradientUnits="userSpaceOnUse" x1="249.8372" x2="276.8344" xlink:href="#i" y1="21.137" y2="21.137"/><linearGradient id="M" gradientUnits="userSpaceOnUse" x1="248.9727" x2="245.5194" xlink:href="#i" y1="10.8266" y2="55.4729"/><linearGradient id="N" gradientUnits="userSpaceOnUse" x1="298.1968" x2="307.9328" xlink:href="#u" y1="116.0216" y2="2.0531"/><linearGradient id="O" gradientUnits="userSpaceOnUse" x1="323.0924" x2="313.7837" xlink:href="#u" y1="67.6044" y2="28.5728"/><linearGradient id="P" gradientUnits="userSpaceOnUse" x1="320.3293" x2="311.2744" xlink:href="#u" y1="67.4013" y2="29.4344"/><linearGradient id="Q"><stop offset="0" stop-color="#bf8b86"/><stop offset=".9989" stop-color="#b26369"/></linearGradient><linearGradient id="R" gradientUnits="userSpaceOnUse" x1="252.8297" x2="265.7462" xlink:href="#Q" y1="38.4917" y2="40.6851"/><linearGradient id="S" gradientUnits="userSpaceOnUse" x1="251.3292" x2="258.4115" xlink:href="#Q" y1="58.622" y2="58.8663"/><linearGradient id="T"><stop offset="0" stop-color="#2b1727"/><stop offset=".9989" stop-color="#b7898f"/></linearGradient><linearGradient id="U" gradientUnits="userSpaceOnUse" x1="216.1312" x2="181.9827" xlink:href="#T" y1="40.3848" y2="63.452"/><linearGradient id="V" gradientUnits="userSpaceOnUse" x1="253.1521" x2="204.3652" xlink:href="#T" y1="22.5771" y2="22.2918"/><linearGradient id="W" gradientUnits="userSpaceOnUse" x1="265.5859" x2="243.7341" y1="12.0475" y2="12.9216"><stop offset="0" stop-color="#2b1727"/><stop offset=".1314" stop-color="#321d2c"/><stop offset=".3258" stop-color="#462d3b"/><stop offset=".5592" stop-color="#674854"/><stop offset=".8206" stop-color="#946d75"/><stop offset=".9989" stop-color="#b7898f"/></linearGradient><linearGradient id="X" gradientUnits="userSpaceOnUse" x1="328.8918" x2="139.6766" xlink:href="#k" y1="121.9362" y2="15.6683"/><linearGradient id="Y" gradientUnits="userSpaceOnUse" x1="452.5146" x2="202.2407" y1="304.0218" y2="198.884"><stop offset="0" stop-color="#ccd4e8"/><stop offset="1" stop-color="#d8ddf5"/></linearGradient><linearGradient id="Z" gradientUnits="userSpaceOnUse" x1="185.4666" x2="383.8509" y1="176.3701" y2="137.4841"><stop offset="0" stop-color="#548df6"/><stop offset="1" stop-color="#387bf5"/></linearGradient><linearGradient id="aa" gradientUnits="userSpaceOnUse" x1="318.6234" x2="243.2304" y1="322.3671" y2="385.3941"><stop offset="0" stop-color="#d8e1f5"/><stop offset="1" stop-color="#eef2fc"/></linearGradient><linearGradient id="ab" gradientUnits="userSpaceOnUse" x1="347.52" x2="288.6764" y1="339.5447" y2="337.2066"><stop offset="0" stop-color="#ff6b00"/><stop offset=".9992" stop-color="#ff8e02"/></linearGradient><linearGradient id="ac" gradientUnits="userSpaceOnUse" x1="369.0001" x2="270.4915" y1="415.3886" y2="395.1818"><stop offset="0" stop-color="#c1cde8"/><stop offset="1" stop-color="#d8e1f5"/></linearGradient><linearGradient id="ad" gradientTransform="matrix(.4542 .00314878 .00314878 .5436 132.4531 321.7192)" gradientUnits="userSpaceOnUse" x1="152.2335" x2="311.7251" xlink:href="#b" y1="319.0443" y2="319.0443"/><linearGradient id="ae" gradientUnits="userSpaceOnUse" x1="218.226" x2="243.5126" y1="463.2884" y2="463.2884"><stop offset=".0005253233" stop-color="#ebf3fc"/><stop offset=".4015" stop-color="#cbd9ee"/><stop offset=".7662" stop-color="#b5c7e4"/><stop offset="1" stop-color="#adc0e0"/></linearGradient><linearGradient id="af" gradientUnits="userSpaceOnUse" x1="219.3799" x2="242.6346" y1="453.4511" y2="453.4511"><stop offset="0" stop-color="#164091"/><stop offset="1" stop-color="#0e2756"/></linearGradient><linearGradient id="ag"><stop offset="0" stop-color="#0f2b5f"/><stop offset="1" stop-color="#0053df"/></linearGradient><linearGradient id="ah" gradientUnits="userSpaceOnUse" x1="236.2223" x2="214.9195" xlink:href="#ag" y1="429.9892" y2="425.6194"/><linearGradient id="ai"><stop offset="0" stop-color="#75cdf9"/><stop offset=".5372" stop-color="#548df6"/><stop offset=".6915" stop-color="#387bf5"/><stop offset="1" stop-color="#508bf6"/></linearGradient><linearGradient id="aj" gradientTransform="matrix(.999 -.04545715 .04545715 .999 -24.4401 13.0929)" gradientUnits="userSpaceOnUse" x1="185.9508" x2="225.3209" xlink:href="#ai" y1="420.0843" y2="420.0843"/><linearGradient id="ak" gradientUnits="userSpaceOnUse" x1="229.4102" x2="201.4974" xlink:href="#ag" y1="443.7613" y2="438.0356"/><linearGradient id="al" gradientUnits="userSpaceOnUse" x1="247.6502" x2="237.6837" y1="399.9582" y2="394.7701"><stop offset="0" stop-color="#387bf5"/><stop offset="1" stop-color="#508bf6"/></linearGradient><linearGradient id="am"><stop offset="0" stop-color="#0053df"/><stop offset=".2036" stop-color="#0052dc"/><stop offset=".3779" stop-color="#024fd1"/><stop offset=".5415" stop-color="#0449bf"/><stop offset=".6985" stop-color="#0741a7"/><stop offset=".8494" stop-color="#0a3787"/><stop offset=".9963" stop-color="#0f2b60"/><stop offset="1" stop-color="#0f2b5f"/></linearGradient><linearGradient id="an" gradientUnits="userSpaceOnUse" x1="256.4051" x2="231.1467" xlink:href="#am" y1="417.1211" y2="417.1211"/><linearGradient id="ao" gradientUnits="userSpaceOnUse" x1="237.4855" x2="234.4808" y1="448.0152" y2="448.0152"><stop offset="0" stop-color="#0053df"/><stop offset="1" stop-color="#0f2b5f"/></linearGradient><linearGradient id="ap" gradientUnits="userSpaceOnUse" x1="186.7905" x2="223.8256" xlink:href="#ai" y1="393.3579" y2="393.3579"/><linearGradient id="aq" gradientUnits="userSpaceOnUse" x1="253.1254" x2="244.2738" xlink:href="#ai" y1="423.1097" y2="415.0026"/><linearGradient id="ar" gradientUnits="userSpaceOnUse" x1="235.8287" x2="253.1298" xlink:href="#ai" y1="437.3416" y2="437.3416"/><linearGradient id="as" gradientUnits="userSpaceOnUse" x1="253.5555" x2="234.2569" xlink:href="#am" y1="430.1085" y2="426.1498"/><linearGradient id="at" gradientUnits="userSpaceOnUse" x1="359.2489" x2="181.7839" xlink:href="#d" y1="203.5834" y2="185.1523"/><linearGradient id="au" gradientUnits="userSpaceOnUse" x1="353.5164" x2="176.6628" xlink:href="#d" y1="257.5421" y2="239.1745"/><linearGradient id="av" gradientUnits="userSpaceOnUse" x1="354.3109" x2="177.8481" xlink:href="#d" y1="249.7598" y2="231.4328"/><linearGradient id="aw" gradientUnits="userSpaceOnUse" x1="350.6446" x2="173.7359" xlink:href="#d" y1="284.6078" y2="266.2345"/><linearGradient id="ax" gradientUnits="userSpaceOnUse" x1="351.5457" x2="174.4553" xlink:href="#d" y1="277.1249" y2="258.7328"/><linearGradient id="ay" gradientUnits="userSpaceOnUse" x1="348.1503" x2="170.6853" xlink:href="#d" y1="311.825" y2="293.3939"/><linearGradient id="az"><stop offset="0" stop-color="#61b7ff"/><stop offset=".07530463" stop-color="#5fb1ff"/><stop offset=".3931" stop-color="#5a9cff"/><stop offset=".7045" stop-color="#568fff"/><stop offset="1" stop-color="#558bff"/></linearGradient><radialGradient id="aA" cx="156.1462" cy="131.0418" gradientUnits="userSpaceOnUse" r="5.8767" xlink:href="#az"/><linearGradient id="aB" gradientUnits="userSpaceOnUse" x1="116.2048" x2="108.6595" y1="86.8541" y2="127.8142"><stop offset="0" stop-color="#508bf6"/><stop offset=".1045" stop-color="#387bf5"/><stop offset=".535" stop-color="#75cdf9"/><stop offset=".8615" stop-color="#548df6"/></linearGradient><linearGradient id="aC"><stop offset="0" stop-color="#092c91"/><stop offset="1" stop-color="#011356"/></linearGradient><linearGradient id="aD" gradientTransform="matrix(.9974 -.07228682 .07228682 .9974 -16.4289 38.7627)" gradientUnits="userSpaceOnUse" x1="108.5205" x2="102.5723" xlink:href="#aC" y1="98.6326" y2="103.2818"/><linearGradient id="aE" gradientUnits="userSpaceOnUse" x1="139.0173" x2="140.5157" y1="123.6029" y2="99.2821"><stop offset=".2755" stop-color="#4779f6"/><stop offset=".9997" stop-color="#1a43ad"/></linearGradient><linearGradient id="aF" gradientUnits="userSpaceOnUse" x1="93.2648" x2="147.8431" xlink:href="#aC" y1="114.6918" y2="114.6918"/><linearGradient id="aG" gradientTransform="matrix(.9974 -.07228682 .07228682 .9974 -16.4289 38.7627)" gradientUnits="userSpaceOnUse" x1="105.5284" x2="99.5801" y1="98.4158" y2="103.0649"><stop offset="0" stop-color="#dbe1f6"/><stop offset=".165" stop-color="#ebeef8"/><stop offset=".3668" stop-color="#f8f9f9"/><stop offset=".5586" stop-color="#fcfcfa"/><stop offset=".708" stop-color="#f7f8f9"/><stop offset=".8775" stop-color="#eaedf8"/><stop offset="1" stop-color="#dbe1f6"/></linearGradient><radialGradient id="aH" cx="106.24" cy="144.2656" gradientUnits="userSpaceOnUse" r="5.5854" xlink:href="#az"/><linearGradient id="aI"><stop offset="0" stop-color="#6770b8"/><stop offset=".1993" stop-color="#8b90ce"/><stop offset=".4058" stop-color="#a8abdf"/><stop offset=".6105" stop-color="#bdbeec"/><stop offset=".8104" stop-color="#cac9f3"/><stop offset="1" stop-color="#cecdf6"/></linearGradient><linearGradient id="aJ" gradientUnits="userSpaceOnUse" x1="112.0616" x2="98.4939" xlink:href="#aI" y1="160.1414" y2="103.9862"/><linearGradient id="aK" gradientUnits="userSpaceOnUse" x1="150.6759" x2="123.6779" y1="176.1123" y2="130.4491"><stop offset="0" stop-color="#f25147"/><stop offset=".9997" stop-color="#d96e6e"/></linearGradient><linearGradient id="aL" gradientUnits="userSpaceOnUse" x1="104.6165" x2="116.1912" y1="148.1262" y2="148.1262"><stop offset="0" stop-color="#f6f6f6"/><stop offset=".2522" stop-color="#dbe1f6"/><stop offset=".2932" stop-color="#d4dbf4"/><stop offset=".3515" stop-color="#c2ccef"/><stop offset=".4198" stop-color="#a3b3e8"/><stop offset=".4543" stop-color="#91a4e3"/></linearGradient><linearGradient id="aM" gradientUnits="userSpaceOnUse" x1="162.9848" x2="149.4171" xlink:href="#aI" y1="147.8378" y2="91.6826"/><linearGradient id="aN" gradientUnits="userSpaceOnUse" x1="153.4402" x2="163.1694" y1="135.602" y2="135.602"><stop offset="0" stop-color="#ddc6d5"/><stop offset=".2562" stop-color="#b9c5ed"/><stop offset=".3468" stop-color="#a9b8e9"/><stop offset=".4543" stop-color="#91a4e3"/></linearGradient><linearGradient id="aO"><stop offset=".0002693966" stop-color="#bc5579"/><stop offset="1" stop-color="#db8a91"/></linearGradient><linearGradient id="aP" gradientUnits="userSpaceOnUse" x1="395.3409" x2="385.0287" xlink:href="#aO" y1="232.8736" y2="238.063"/><linearGradient id="aQ" gradientUnits="userSpaceOnUse" x1="394.0644" x2="383.7285" xlink:href="#aO" y1="230.3804" y2="235.5817"/><linearGradient id="aR"><stop offset=".0008081897" stop-color="#efd0d9"/><stop offset="1" stop-color="#d89189"/></linearGradient><linearGradient id="aS" gradientTransform="matrix(.9962 -.0867568 .0867568 .9962 -127.7666 45.7351)" gradientUnits="userSpaceOnUse" x1="485.4467" x2="518.497" xlink:href="#aR" y1="233.7926" y2="252.7853"/><linearGradient id="aT" gradientTransform="matrix(.9962 -.0867568 .0867568 .9962 -127.7666 45.7351)" gradientUnits="userSpaceOnUse" x1="483.7878" x2="516.8381" xlink:href="#aR" y1="236.6795" y2="255.6722"/><linearGradient id="aU" gradientTransform="matrix(.9962 -.0867568 .0867568 .9962 -127.7666 45.7351)" gradientUnits="userSpaceOnUse" x1="483.5126" x2="516.3345" xlink:href="#aR" y1="237.4556" y2="256.3171"/><linearGradient id="aV" gradientUnits="userSpaceOnUse" x1="397.9786" x2="387.6079" xlink:href="#aO" y1="238.0959" y2="243.3147"/><linearGradient id="aW"><stop offset=".0002693966" stop-color="#bc5579"/><stop offset="1" stop-color="#b05d64"/></linearGradient><linearGradient id="aX" gradientTransform="matrix(.9962 -.0867568 .0867568 .9962 -127.7666 45.7351)" gradientUnits="userSpaceOnUse" x1="538.4097" x2="514.3643" xlink:href="#aW" y1="212.5469" y2="195.6702"/><linearGradient id="aY" gradientTransform="matrix(.9962 -.0867568 .0867568 .9962 -127.7666 45.7351)" gradientUnits="userSpaceOnUse" x1="568.9215" x2="589.0019" xlink:href="#aR" y1="196.5685" y2="195.8383"/><linearGradient id="aZ" gradientTransform="matrix(.9962 -.0867568 .0867568 .9962 -127.7666 45.7351)" gradientUnits="userSpaceOnUse" x1="571.4275" x2="579.244" xlink:href="#aW" y1="194.4754" y2="194.4754"/><linearGradient id="a0" gradientTransform="matrix(.9962 -.0867568 .0867568 .9962 -127.7666 45.7351)" gradientUnits="userSpaceOnUse" x1="564.1826" x2="577.7822" xlink:href="#aW" y1="181.5913" y2="181.5913"/><linearGradient id="a1" gradientTransform="matrix(.9962 -.0867568 .0867568 .9962 -127.7666 45.7351)" gradientUnits="userSpaceOnUse" x1="565.7029" x2="594.7007" y1="178.1237" y2="191.2373"><stop offset=".001077586" stop-color="#b53323"/><stop offset="1" stop-color="#4d0003"/></linearGradient><linearGradient id="a2" gradientTransform="matrix(.9962 -.0867568 .0867568 .9962 -127.7666 45.7351)" gradientUnits="userSpaceOnUse" x1="563.2432" x2="586.775" y1="181.2142" y2="181.2142"><stop offset=".0008081897" stop-color="#bf6d62"/><stop offset="1" stop-color="#821107"/></linearGradient><linearGradient id="a3" gradientTransform="matrix(.9962 -.0867568 .0867568 .9962 -127.7666 45.7351)" gradientUnits="userSpaceOnUse" x1="568.8481" x2="588.8522" xlink:href="#aR" y1="191.7351" y2="191.0077"/><linearGradient id="a4" gradientTransform="matrix(.9962 -.0867568 .0867568 .9962 -127.7666 45.7351)" gradientUnits="userSpaceOnUse" x1="541.4649" x2="517.2347" xlink:href="#aW" y1="208.3358" y2="191.3295"/><linearGradient id="a5" gradientTransform="matrix(.9962 -.0867568 .0867568 .9962 -127.7666 45.7351)" gradientUnits="userSpaceOnUse" x1="534.8375" x2="540.495" y1="206.8548" y2="223.3807"><stop offset=".0008081897" stop-color="#efbfbf"/><stop offset="1" stop-color="#d89189"/></linearGradient><linearGradient id="a6" gradientTransform="matrix(.9962 -.0867568 .0867568 .9962 -127.7666 45.7351)" gradientUnits="userSpaceOnUse" x1="539.5606" x2="564.1826" y1="230.6666" y2="230.6666"><stop offset="0" stop-color="#213080"/><stop offset=".9992" stop-color="#263d99"/></linearGradient><linearGradient id="a7" gradientTransform="matrix(.9954 -.0936937 .06256215 .7989 -109.7099 192.9973)" gradientUnits="userSpaceOnUse" x1="394.5723" x2="612.6678" xlink:href="#b" y1="431.1797" y2="431.1797"/><linearGradient id="a8"><stop offset=".001077586" stop-color="#917f8f"/><stop offset="1" stop-color="#2d111f"/></linearGradient><linearGradient id="a9" gradientTransform="matrix(.9962 -.0867568 .0867568 .9962 -127.7666 45.7351)" gradientUnits="userSpaceOnUse" x1="511.0704" x2="573.4246" xlink:href="#a8" y1="445.0686" y2="426.6458"/><linearGradient id="ba"><stop offset=".001077586" stop-color="#33212f"/><stop offset="1" stop-color="#0f0000"/></linearGradient><linearGradient id="bb" gradientTransform="matrix(.9962 -.0867568 .0867568 .9962 -127.7666 45.7351)" gradientUnits="userSpaceOnUse" x1="539.772" x2="571.7986" xlink:href="#ba" y1="432.441" y2="432.441"/><linearGradient id="bc" gradientUnits="userSpaceOnUse" x1="474.3632" x2="450.5615" y1="326.2067" y2="410.5044"><stop offset=".2205" stop-color="#282b63"/><stop offset=".9992" stop-color="#263d99"/></linearGradient><linearGradient id="bd" gradientTransform="matrix(.9294 -.369 .369 .9294 -553.1591 267.4558)" gradientUnits="userSpaceOnUse" x1="753.0464" x2="813.6144" xlink:href="#a8" y1="492.2359" y2="502.6786"/><linearGradient id="be" gradientTransform="matrix(.9294 -.369 .369 .9294 -553.1591 267.4558)" gradientUnits="userSpaceOnUse" x1="772.0437" x2="817.3481" xlink:href="#ba" y1="501.9745" y2="501.9745"/><linearGradient id="bf"><stop offset="0" stop-color="#282b63" stop-opacity="0"/><stop offset="1" stop-color="#f560ab"/></linearGradient><linearGradient id="bg" gradientUnits="userSpaceOnUse" x1="363.9063" x2="385.573" xlink:href="#bf" y1="428.6992" y2="463.6312"/><linearGradient id="bh" gradientTransform="matrix(.9962 -.0867568 .0867568 .9962 -127.7666 45.7351)" gradientUnits="userSpaceOnUse" x1="387.8389" x2="541.2863" xlink:href="#m" y1="358.7921" y2="380.3378"/><linearGradient id="bi" gradientTransform="matrix(.9962 -.0867568 .0867568 .9962 -127.7666 45.7351)" gradientUnits="userSpaceOnUse" x1="601.4569" x2="434.002" y1="342.6845" y2="360.0261"><stop offset="0" stop-color="#282b63"/><stop offset=".9992" stop-color="#263d99"/></linearGradient><linearGradient id="bj" gradientTransform="matrix(.9962 -.0867568 .0867568 .9962 -127.7666 45.7351)" gradientUnits="userSpaceOnUse" x1="472.2788" x2="589.9768" xlink:href="#m" y1="282.4662" y2="279.4611"/><linearGradient id="bk" gradientTransform="matrix(.9962 -.0867568 .0867568 .9962 -127.7666 45.7351)" gradientUnits="userSpaceOnUse" x1="503.9483" x2="571.8224" xlink:href="#m" y1="259.547" y2="259.547"/><linearGradient id="bl" gradientTransform="matrix(.9962 -.0867568 .0867568 .9962 -127.7666 45.7351)" gradientUnits="userSpaceOnUse" x1="556.4304" x2="570.9203" xlink:href="#ba" y1="427.4098" y2="427.4098"/><linearGradient id="bm" gradientTransform="matrix(.9962 -.0867568 .0867568 .9962 -127.7666 45.7351)" gradientUnits="userSpaceOnUse" x1="539.772" x2="565.4467" xlink:href="#ba" y1="445.9818" y2="445.9818"/><linearGradient id="bn" gradientUnits="userSpaceOnUse" x1="447.4022" x2="492.527" xlink:href="#bf" y1="411.8145" y2="434.2147"/><linearGradient id="bo" gradientUnits="userSpaceOnUse" x1="438.6812" x2="482.9081" xlink:href="#bf" y1="430.3172" y2="452.2715"/><linearGradient id="bp" gradientTransform="matrix(.9962 -.0867568 .0867568 .9962 -127.7666 45.7351)" gradientUnits="userSpaceOnUse" x1="562.3464" x2="570.1763" xlink:href="#aW" y1="209.4043" y2="209.4043"/><linearGradient id="bq" gradientTransform="matrix(.9962 -.0867568 .0867568 .9962 -127.7666 45.7351)" gradientUnits="userSpaceOnUse" x1="604.1181" x2="441.7372" y1="378.4676" y2="395.2837"><stop offset="0" stop-color="#282b63"/><stop offset="1" stop-color="#263d99"/></linearGradient><linearGradient id="br" gradientTransform="matrix(.9962 -.0867568 .0867568 .9962 -127.7666 45.7351)" gradientUnits="userSpaceOnUse" x1="547.7181" x2="544.6286" xlink:href="#m" y1="436.0898" y2="382.7966"/><linearGradient id="bs" gradientTransform="matrix(.9962 -.0867568 .0867568 .9962 -127.7666 45.7351)" gradientUnits="userSpaceOnUse" x1="507.5294" x2="531.9635" y1="254.6754" y2="254.6754"><stop offset="0" stop-color="#263d99"/><stop offset=".9992" stop-color="#263d99"/></linearGradient><linearGradient id="bt"><stop offset="0" stop-color="#263d99"/><stop offset=".01730873" stop-color="#282b63"/><stop offset=".9992" stop-color="#263d99"/></linearGradient><linearGradient id="bu" gradientTransform="matrix(.9962 -.0867568 .0867568 .9962 -127.7666 45.7351)" gradientUnits="userSpaceOnUse" x1="588.9909" x2="542.9822" xlink:href="#bt" y1="257.6291" y2="269.6848"/><linearGradient id="bv" gradientUnits="userSpaceOnUse" x1="397.347" x2="386.9763" xlink:href="#aO" y1="236.8408" y2="242.0596"/><linearGradient id="bw" gradientTransform="matrix(.9962 -.0867568 .0867568 .9962 -127.7666 45.7351)" gradientUnits="userSpaceOnUse" x1="505.9526" x2="481.9072" xlink:href="#aW" y1="258.791" y2="241.9144"/><linearGradient id="bx" gradientTransform="matrix(.9962 -.0867568 .0867568 .9962 -127.7666 45.7351)" gradientUnits="userSpaceOnUse" x1="486.8897" x2="519.9672" xlink:href="#aR" y1="231.2778" y2="250.2861"/><linearGradient id="by" gradientTransform="matrix(.9962 -.0867568 .0867568 .9962 -127.7666 45.7351)" gradientUnits="userSpaceOnUse" x1="489.988" x2="522.9944" xlink:href="#aR" y1="225.9145" y2="244.882"/><linearGradient id="bz" gradientUnits="userSpaceOnUse" x1="408.1672" x2="443.2939" xlink:href="#m" y1="219.2602" y2="219.435"/><linearGradient id="bA" gradientUnits="userSpaceOnUse" x1="444.7148" x2="491.6234" xlink:href="#bt" y1="271.4177" y2="272.0926"/><linearGradient id="bB" gradientUnits="userSpaceOnUse" x1="402.8546" x2="571.7987" y1="307.4537" y2="390.3117"><stop offset="0" stop-color="#282b63" stop-opacity="0"/><stop offset=".6218" stop-color="#b24f94" stop-opacity=".8802"/><stop offset=".7583" stop-color="#7d4181" stop-opacity=".4135"/><stop offset="1" stop-color="#f560ab"/></linearGradient><linearGradient id="bC"><stop offset=".0008081897" stop-color="#91436c"/><stop offset="1" stop-color="#7c304b"/></linearGradient><linearGradient id="bD" gradientUnits="userSpaceOnUse" x1="93.8293" x2="57.209" xlink:href="#bC" y1="493.0244" y2="422.1984"/><linearGradient id="bE"><stop offset=".0008081897" stop-color="#e69d9d"/><stop offset="1" stop-color="#aa6572"/></linearGradient><linearGradient id="bF" gradientUnits="userSpaceOnUse" x1="42.2906" x2="54.6923" xlink:href="#bE" y1="407.5291" y2="411.7986"/><linearGradient id="bG"><stop offset="0" stop-color="#000340"/><stop offset=".9992" stop-color="#2049d6"/></linearGradient><linearGradient id="bH" gradientUnits="userSpaceOnUse" x1="40.1234" x2="116.3306" xlink:href="#bG" y1="330.3739" y2="415.1851"/><linearGradient id="bI" gradientUnits="userSpaceOnUse" x1="83.1456" x2="126.7022" y1="340.0586" y2="340.0586"><stop offset="0" stop-color="#c1cde8"/><stop offset=".9997" stop-color="#d8e1f5"/></linearGradient><linearGradient id="bJ" gradientUnits="userSpaceOnUse" x1="116.3599" x2="79.7396" xlink:href="#bC" y1="481.375" y2="410.549"/><linearGradient id="bK" gradientUnits="userSpaceOnUse" x1="78.7993" x2="88.5707" xlink:href="#bE" y1="441.379" y2="439.5469"/><linearGradient id="bL"><stop offset="0" stop-color="#f560ab" stop-opacity="0"/><stop offset="1" stop-color="#f560ab"/></linearGradient><linearGradient id="bM" gradientUnits="userSpaceOnUse" x1="94.7867" x2="171.5963" xlink:href="#bL" y1="453.504" y2="477.5132"/><linearGradient id="bN" gradientUnits="userSpaceOnUse" x1="-14.6298" x2="67.4804" y1="339.5385" y2="385.7256"><stop offset="0" stop-color="#71b1de"/><stop offset=".9997" stop-color="#2049d6"/></linearGradient><linearGradient id="bO" gradientUnits="userSpaceOnUse" x1="81.6395" x2="36.8441" xlink:href="#bG" y1="336.6705" y2="386.3527"/><linearGradient id="bP" gradientUnits="userSpaceOnUse" x1="32.3397" x2="123.6898" xlink:href="#bL" y1="455.7477" y2="442.5481"/><linearGradient id="bQ" gradientUnits="userSpaceOnUse" x1="74.892" x2="50.8719" xlink:href="#bC" y1="227.2917" y2="276.4073"/><linearGradient id="bR" gradientUnits="userSpaceOnUse" x1="73.3885" x2="111.7916" y1="223.8041" y2="223.8041"><stop offset="0" stop-color="#c1d1e8"/><stop offset="1" stop-color="#d8e5f5"/></linearGradient><linearGradient id="bS" gradientUnits="userSpaceOnUse" x1="73.3885" x2="111.7916" xlink:href="#bL" y1="223.8041" y2="223.8041"/><linearGradient id="bT"><stop offset=".001077586" stop-color="#33212f"/><stop offset="1" stop-color="#0f0113"/></linearGradient><linearGradient id="bU" gradientUnits="userSpaceOnUse" x1="56.4372" x2="62.5783" xlink:href="#bT" y1="249.2929" y2="249.2929"/><linearGradient id="bV" gradientUnits="userSpaceOnUse" x1="76.4106" x2="52.4461" xlink:href="#bC" y1="228.0221" y2="277.0241"/><linearGradient id="bW" gradientUnits="userSpaceOnUse" x1="78.0792" x2="54.1965" xlink:href="#bC" y1="228.9036" y2="277.7382"/><linearGradient id="bX" gradientUnits="userSpaceOnUse" x1="58.1231" x2="65.8645" xlink:href="#bE" y1="243.9833" y2="248.2841"/><linearGradient id="bY" gradientUnits="userSpaceOnUse" x1="58.6179" x2="71.0871" xlink:href="#bT" y1="252.4501" y2="252.4501"/><linearGradient id="bZ"><stop offset="0" stop-color="#732846"/><stop offset=".1342" stop-color="#762a47"/><stop offset=".2498" stop-color="#81304a"/><stop offset=".3584" stop-color="#933a50"/><stop offset=".4628" stop-color="#ac4858"/><stop offset=".5634" stop-color="#cc5a62"/><stop offset=".573" stop-color="#cf5c63"/><stop offset="1" stop-color="#862446"/></linearGradient><linearGradient id="b0" gradientUnits="userSpaceOnUse" x1="45.777" x2="10.3093" xlink:href="#bZ" y1="209.2031" y2="382.5515"/><linearGradient id="b1" gradientUnits="userSpaceOnUse" x1="64.3906" x2="29.0399" xlink:href="#bZ" y1="213.5088" y2="386.2852"/><linearGradient id="b2" gradientUnits="userSpaceOnUse" x1="58.3142" x2="-4.9128" y1="342.4467" y2="281.1955"><stop offset="0" stop-color="#f25147"/><stop offset=".5493" stop-color="#fc9880"/><stop offset="1" stop-color="#eea095"/></linearGradient><linearGradient id="b3" gradientUnits="userSpaceOnUse" x1="109.585" x2="59.6694" xlink:href="#bC" y1="270.6423" y2="301.3707"/><linearGradient id="b4" gradientUnits="userSpaceOnUse" x1="108.0834" x2="66.0662" xlink:href="#bC" y1="264.7849" y2="305.5015"/><linearGradient id="b5" gradientUnits="userSpaceOnUse" x1="51.7343" x2="67.1826" y1="217.5485" y2="217.5485"><stop offset=".001602909" stop-color="#209fd6"/><stop offset="1" stop-color="#144edd"/></linearGradient><linearGradient id="b6" gradientUnits="userSpaceOnUse" x1="19.5745" x2="46.8859" xlink:href="#bC" y1="233.2897" y2="227.7285"/><linearGradient id="b7" gradientUnits="userSpaceOnUse" x1="20.2885" x2="30.3973" xlink:href="#bE" y1="243.0702" y2="250.4755"/><linearGradient id="b8" gradientUnits="userSpaceOnUse" x1="40.4674" x2="35.0303" xlink:href="#bT" y1="241.7525" y2="224.3085"/><linearGradient id="b9" gradientUnits="userSpaceOnUse" x1="19.5968" x2="46.8655" xlink:href="#bC" y1="232.9396" y2="227.3872"/><linearGradient id="ca" gradientUnits="userSpaceOnUse" x1="60.8771" x2="59.858" xlink:href="#bG" y1="230.3851" y2="212.2113"/><linearGradient id="cb" gradientUnits="userSpaceOnUse" x1="64.5488" x2="38.0472" xlink:href="#bG" y1="211.3068" y2="212.9461"/><linearGradient id="cc" gradientUnits="userSpaceOnUse" x1="48.3326" x2="22.3861" y1="211.5866" y2="214.8076"><stop offset="0" stop-color="#2352c4"/><stop offset="1" stop-color="#68b9f9"/></linearGradient><linearGradient id="cd" gradientUnits="userSpaceOnUse" x1="29.1922" x2="25.2998" xlink:href="#ba" y1="222.6162" y2="215.8694"/><linearGradient id="ce" gradientUnits="userSpaceOnUse" x1="109.4625" x2="59.9698" xlink:href="#bC" y1="270.6174" y2="301.0854"/><linearGradient id="cf" gradientUnits="userSpaceOnUse" x1="111.5234" x2="62.0323" xlink:href="#bC" y1="273.9603" y2="304.4274"/><linearGradient id="cg" gradientUnits="userSpaceOnUse" x1="113.5499" x2="64.0483" xlink:href="#bC" y1="277.2601" y2="307.7337"/><linearGradient id="ch" gradientUnits="userSpaceOnUse" x1="114.632" x2="65.076" xlink:href="#bC" y1="279.0218" y2="309.5288"/><linearGradient id="ci" gradientUnits="userSpaceOnUse" x1="13.5016" x2="33.4577" xlink:href="#a8" y1="230.5501" y2="235.3938"/><linearGradient id="cj" gradientUnits="userSpaceOnUse" x1="21.0432" x2="33.5336" xlink:href="#a8" y1="216.8061" y2="219.07"/><linearGradient id="ck" gradientUnits="userSpaceOnUse" x1="55.9358" x2="66.8187" xlink:href="#bE" y1="303.698" y2="303.698"/><linearGradient id="cl" gradientUnits="userSpaceOnUse" x1="99.0173" x2="91.08" xlink:href="#bE" y1="273.4138" y2="294.0965"/><clipPath id="cm"><path d="m111.8 199.1-38.4 10.2v39.3l38.4-10.3z"/></clipPath><linearGradient id="cn" gradientUnits="userSpaceOnUse" x1="40.0333" x2="52.0939" xlink:href="#bT" y1="238.2955" y2="238.2955"/><g filter="url(#a)" opacity=".4"><path d="m45.3 497.6c-32.2 1.1-33.8 17.9-15.4 16.8s50.3 5.3 104 3.5c53.7-1.9 49.8-10.8 31.1-16.3-18.8-5.4-78.3-5.4-119.7-4z" fill="url(#c)"/></g><path d="m393.1 64.6v-62.7l-54.4 14.6" fill="none" stroke="#adc0e0" stroke-miterlimit="10" stroke-width=".7903"/><path d="m422.8 77.6v-21l-59.4 15.9v24.7" fill="none" stroke="#adc0e0" stroke-miterlimit="10" stroke-width=".7903"/><path d="m343.9 90.1v20.7l39.6-10.6v-20.8z" fill="url(#e)"/><path d="m403.2 73.2v20.8l39.7-10.6v-20.8z" fill="url(#f)"/><path d="m393.1 11.8-21.2 19.9 21.2 8.6 21.1-19.9z" fill="url(#g)"/><path d="m313.5 7.6v35.2l28.4-7.6v-35.2z" fill="url(#h)"/><path d="m331.6 17.9c-1.3-.2-10.9 4.4-10.7 1.1-.3-3.1 9-3.6 10.7-4.5 2.5-.5 1.9 3.1 0 3.4z" fill="#bdcff0"/><path d="m333.6 24.9c-1.3-.3-14.6 5.5-14.2 2-.5-3.2 12.6-4.4 14.2-5.5 2.5-.4 1.9 3.2 0 3.5z" fill="#bdcff0"/><path d="m252.1 12.3c-19-5-10.8 24.1-18.8 29.5-10.4 3-28.7-12.8-34.7 4.6-5.9 19.9 21.7 14.3 20.8 33.7 13.9 46.4 47.2-45.7 40.9-56.2-5.4-9.5-8.2-11.6-8.2-11.6z" fill="url(#j)"/><path d="m268.4 71.5c6.5 15 7.5 46 26.7 41.1 4.2-1.8 28-16.7 28-16.7s4.7-2.8 2.4-9.7c-1.6-5-7.2-2.3-7.2-2.3l-22.2 9.2s-6.8-21.7-10.1-29.6c-5.3-12.6-22.6-5.6-17.6 8z" fill="url(#l)"/><path d="m319.6 84.3s-2.8.6-2.1 8.3c.4 5-16.7 10.1-16.7 10.1l5.6 3.5s11.9-7.5 15.8-9.7 5.4-5.8 3.7-9.6c-2.4-5.1-6.3-2.6-6.3-2.6z" fill="url(#n)"/><path d="m306.4 106.1c-2.5-3.3-3.4-14.7 1.2-17.8l-11.5 4.8-6.3-27.4-8.4 37.6 5.9 9.5c3.6 1.3 9.1-.4 12.3-2.7" fill="url(#o)"/><path d="m247.2 198.7c-4.3-3.4-14-26.9-10.7-44.2 2-10.7 6.2-24 5.4-32.9-3.6-15.4-28.8-41.8-7.7-57.5 5.1-2.7 16.5-6.8 20.5-11.1s9.7-1.3 14.2 1.2 6.8.4 11.1 1.7c15.8 10 9.8 30.6 9.1 49.5-.9 10-4.8 24-3 30.2 3 10.7 11.8 42 9 48.8s-41.7 19.3-47.9 14.3z" fill="url(#p)"/><path d="m239.1 97.1c-6.5-7.6-7.1-12.8-7.1-12.8l-5.5-7.6c-4 15.5 13.9 33.7 15.4 44.9 1.2 13.6-8 31.6-5.7 46.7 18.5 8.2 7.5-2.3 13.8-20.8 1.8-5.4 10.3-15.7 5.6-18.6-12-7.4-10-24.2-16.5-31.8z" fill="url(#q)"/><path d="m267.8 54.1c8.7-1.3 27.1 6.8 22.4 18.3 0 0 3.2 10 3.2 10s-5.2 9.4-11.9 10.6c-10.1 1.7-44.9-25.1-41.8-28.8 4.7-9.7 27.6-10.9 28.1-10.1z" fill="url(#r)"/><path d="m231.6 88.2c8.1 7.1 28.8 8.4 34.7 10.6s12 1.4 15.2-2.3c7.6-11.3 27.8-24.2 17.8-35.7-3.9-4-8.4-.8-8.4-.8l-18.4 21s-23-5.1-30-11.1c-11.1-9.6-22.5 8.1-10.9 18.3z" fill="url(#s)"/><path d="m270.8 100s-39.5-7.1-36.5-10.1c.8-.8 39 8.7 44.2 2.5 3.9-3.7 13.6-20.8 13.6-21.1 0 0-3.5-2.9-1.7-9.1 1.7-5.7 11.4-2.6 11.9 3.6s-2 8.4-2 8.4c-4.8 3.8-16.4 28.4-29.5 25.8z" fill="url(#t)"/><path d="m311 38.8c10-1.2 9 12.3 4.5 4-3-1.2-6.3 1.6-4.5-4z" fill="url(#v)"/><path d="m314.5 42.1c4.6 3.4 5.8 4.6 2.9 8.8-1.7 1.3-1.7-4-1-3.9-2.2-1.5-4.5-1.4-1.9-4.9z" fill="url(#w)"/><path d="m292 60.2c3.3-4.4 10.2-13.1 13.3-17.9 5.6-8.4 11.9-1.7 10.9 6.2-1.3 7.5-8.7 7-13.2 12.8-1.3 1.9-2 6.9-3.1 8.5-5.8 5.8-11.4-5.9-7.9-9.6z" fill="url(#y)"/><path d="m309.4 36.8c3.5-1.6 5.2-2.6 6.7-2.2 3.7 1.7 5.2 8.3-1.1 3 0 0-3.6 2.5-4.6 3.3s-1.6 1.2-2.4 2.4-2.8.4-1.7-2.4c1.1-2.7 3.1-4.1 3.1-4.1z" fill="url(#z)"/><path d="m313.7 45.5c4.6 3.4 5.8 4.6 2.9 8.8-1.7 1.3-1.7-4-1-3.9 0 0-2.4-2.3-3.5-2.8s1.6-2.1 1.6-2.1z" fill="url(#A)"/><path d="m323.7 93.2c6.4-4.9 7.6-2.5 13.7-5.3 2.5-1.9 4.9-5.7 3.3-8.5s-2.6-6.2-5.6-5c-4.9 2.6-9.7 9.6-15 10.5-3.8 1.6-1.3 10.9 3.6 8.3z" fill="url(#B)"/><path d="m332.5 75.7s2.8-2 3.9-2.6c1.1-.4 17.1-4.4 12.2-.3-2.1.9-6.2 1.9-6.2 1.9s-3.9 2.4-6.1 3c-2.2.7-6.2.5-3.8-2z" fill="url(#C)"/><path d="m337.3 75.3c1.5-3.2 10.3-2.5 12.3-4-.7-1.2-5.6.5-7.8.5-3.8 0-8.7 3.1-10.8 4.8z" fill="url(#D)"/><path d="m343.6 77.4c.2 5.1-16.7 4.5-4.7.9l-2-1.3c.5-2 4.9-3.3 6.7.4z" fill="url(#E)"/><path d="m343.3 80.6c.5 3.9-13.6 4.8-7.6 1.8 3.9-.6 1.5-1.1 2.6-2.5 2.2-1 4.3-3.1 5 .7z" fill="url(#F)"/><path d="m342.2 83.8c.5 3.8-15.4 5-4.7 1l-.9-1.1c1 .1 5-3.6 5.6.1z" fill="url(#G)"/><path d="m347.8 85.8c-6.4 2.7-12.4-.6-13.5-7.3-3.4-13.3 19.3-27.2 23.1-9.8 1.1 6.7-3.2 14.4-9.6 17.1z" fill="#fdbe1a"/><path d="m327.4 80.7c2.5-2.8 4.7-7.6 7.3-11.3 1-1.4 1.4 1.8.7 3.3s-1.1 2.9-1 3.9c1 3.3-4.7 8-7 4.1z" fill="url(#H)"/><path d="m265.8 74.4c.5.1 7.9-16.3 2.1-20.3-1.7-1.9-2.9-4.1-3.4-4.1-.8.1-11.8-2.8-13.8 2.2-6.1 11.6 6.3 18.2 15.1 22.2z" fill="url(#I)"/><path d="m249.4 57.2c.7-4.3 2.4-12.6.6-17.1-10.8-26.1 16.2-41.3 24.7-18.3 1.8 13.1-1.6 16.3-7.1 24.2-1.3 2.3 0 8.1.5 9.5 3.3 12.9-18.7 13.3-18.7 1.7z" fill="url(#J)"/><path d="m254.7 48.7c-3.4-2.8-9.1-9.9-8.1-17.7s-.6-19.6 12.5-20.8 16.7 8.5 16.3 17.7c.1 17.2-6.2 33.3-20.7 20.8z" fill="url(#K)"/><path d="m252.4 16.2c1 8.7 16.8 9.2 21.2 6.9l1.1 12.5c.1-2.1 4.6-17.4 0-20.8-8.6-15.5-32.7-5.5-22.3 1.4z" fill="url(#L)"/><path d="m248.8 54.6c-4.4-8.5-.2-16.2 6.3-24.1 3.4-5.7 2.5-14.2-4-18.4-12.2-6-15.1 32.2-13.2 38.8 3.1 5.2 10.9 3.7 10.9 3.7z" fill="url(#M)"/><path d="m292 60.2s1.4-1.3 3-3.1c-2 5.2 1.8 9.7 5.2 4 2.3-2.7 1.3-2.5 2.5-4.7 1.5-2.6 5.9-5.4 7.1-6.9 2.4-5.1 6.8-4 5.7.8 0 0-2.5 6.5-6.9 7-4.3.3-6.7 10-8.3 11.7-4.3 7.5-12.3-3.6-8.3-8.8z" fill="url(#N)"/><path d="m312.6 37.9c.2-.1 4.5-3.3 1.2-3 3.5-2.7 10.4 9.4 1.2 2.9l-2 1.2z" fill="url(#O)"/><path d="m313.2 37.5s-1.4.9-2.1 1.3c-1 .8 3.6 0 1 1.9-1.7 1.1 3 1.5 1.1 2.8-1 .5 1.3.7.1 2.2-.8 1 3.6 2.8 3.6 2.8.9-5.7.2-6.8-3.7-11z" fill="url(#P)"/><path d="m257.2 50.1c19.4 10.5 7.2-44.1-3.5-10.8-2.8 6.7 3.5 10.8 3.5 10.8z" fill="url(#R)" opacity=".7"/><path d="m258.4 65.8c4.2-6.1-2.4-14.4-5.6-15.3 0 0-1.3 5.2-1.4 8.5-.4 6 4.9 10 7 6.8z" fill="url(#S)" opacity=".7"/><path d="m204.8 53.7c1.3-6.2 5.7-14.5 12.4-13.9-6.4-3.9-12.8-1-15.3 1.3-9.6 6.9 2.4 25.8 2.9 12.6z" fill="url(#U)"/><path d="m237.2 33.5c23-20.3 8.5-32 1-10.8-.8 6-.1 6.9-1 10.8z" fill="url(#V)"/><path d="m259 16.7c1.3.4 6.3 1.5 4.8-2.6-.2-7.9-8-8.2-12.6-3.5-.5.6 4.3 5 7.8 6.1z" fill="url(#W)"/><path d="m244.1 71.3c-5.4-5.1-.5-11.6-.5-11.6-8.2 2.8-16 6.3-17.3 18.4-.5 4.2 17.8-6.8 17.8-6.8z" fill="url(#X)"/><path d="m386 118.4-215.5 57.7v167.2l215.5-57.8z" fill="url(#Y)"/><path d="m386.3 114.7-215.5 57.7v29.2l215.5-57.8z" fill="url(#Z)"/><path d="m328.7 148.1v1.1l27.9-7.5v-1.1z" fill="#fff" opacity=".1"/><g style="opacity:.2;fill:none;stroke:#fff;stroke-linecap:round;stroke-linejoin:round;stroke-miterlimit:10"><path d="m362.3 128.5v15l12.9-3.4v-15z" stroke-width=".8593"/><path d="m362.4 141.3s.7-3.8 5-4.8c-2.5-1.4-1.9-4.2-1.3-5.4 2.8-4.6 8.3 1.1 4.3 4.7 1.7-.3 3.5.4 4.5 1.7" stroke-width="1.0534"/></g><path d="m194.7 178.8c1.3.9 2.6-1.4 1.6-2.4-1.3-1-2.8 1.5-1.6 2.4z" fill="#fff"/><path d="m237.4 172.3c-.7-1.5-1.3 1.5-2.1 1.5-1-.1-.7-2.1-.9-3-.7-3.9-3.5 1.5-3.8 3.1-.3-1 1.1-5.6-.8-3.7-1.2 1.6.5 4.7-1.9 5.6-1.4-.3.2-2.3-.1-3.3.1-.9-.9-2.4-1.5-1-4.5-1.8-4 9-7.2 5.7 1.8-1.8 3.4-11.3-.8-9.1-2.8 3.1.9 8.8-2.3 11 1.1-2.6-1.5-6.8-3.7-3.3.4-.7-.4-2.5-1-1.4-.2 2.6-.3 8-4.3 6.8 4.8-2.6 1.4-8.9-1.6-2.7-.4-1.6 1.7-10.4-.9-6.9-1.5 3.6 1.7 10.4-3.4 11.8-1.1.2-1.9-.2-1.8-1.4 1.4-6.2 2.4.9 3.3-2.3.1-2.7-3.3-1.9-4 .1-1 1.4-.4 3.8-2.1 4.5-1.2-.1-.6-2.6-.6-3.6-.1-1.8-1.7-.8-1.4.6.3 1.6-1 5.7-2.8 3.3 1.8-1.8 3.4-11.3-.8-9.1-2.8 3.1.9 8.9-2.4 11 1.3-2.2-.6-3.6-2.7-4 .7-1.9-1-2.1-1.4-.3.1 1.5-.2 2.9-1.1 4.2-.2 3.4 2.1-1.3 2.2-2.4 1.4.3 2.8 1.7 1.3 2.9-.7 0-1.8-.6-2.1.3 0 2.8 5.4.4 6-1.2 1.1 1.9 3.2.7 4.1-.8.9 1.8 2.8.1 3.4-1 1.6 1.9 4.7.3 5.9-1.4.3 2.9 1.9 1.5 1.2-.7 1.3 2 4.1.7 5.3-.8.4 1.7-1.1 6.6 1.6 6.2.3-3.4-1.6-8.6 1.4-11.3 1.3.1 1.2 2.7.5 3.6-.5.1-1.3-.2-1.4.5.1 2.4 4.8-.1 5.3-1.5 1.1 1.9 3.2.7 4.1-.8 1.1 1.7 3.4.3 4.2-1.1.8 1.6 2.5.4 3.2-.7 1.4 3.5 2.1-2.8 3-3.7 1-1.4.4 2.6 1.3 2.9 1.5.9 3.9-1.7 3.6-3.1zm-46.1 10.7c-.3-2-.4-4.7.5-6.4 1 1.8.4 4.6-.5 6.4zm15.4-3c-.3.3-.6.5-.9.7.3-3.2 4.2-4.5.9-.7zm11.9-4.3c-.3-2-.4-4.7.5-6.4 1 1.8.4 4.6-.5 6.4zm7.4-.5c-3.2 5-3.8-2.8 0-2.4-.1.8-.1 1.7 0 2.4z" fill="#fff"/><path d="m355.1 138.5-18.7 5c-2.2.4-1.7-2.6 0-2.9 0 0 18.7-5 18.7-5 2.2-.5 1.7 2.6 0 2.9z" fill="#fff" opacity=".2"/><path d="m280 161.1-18.7 5c-2.2.4-1.7-2.6 0-2.9 0 0 18.7-5 18.7-5 2.1-.5 1.6 2.6 0 2.9z" fill="#fff" opacity=".1"/><path d="m309.7 152.6-14.8 3.9c-2.2.4-1.7-2.6 0-2.9 0 0 14.8-3.9 14.8-3.9 2.2-.4 1.6 2.7 0 2.9z" fill="#fff" opacity=".1"/><path d="m290.3 158.5c-2.9 1-2.9-3.4-.6-4.1 2.8-1 2.8 3.4.6 4.1z" fill="#fff" opacity=".3"/><path d="m256.6 168.2c-2.9 1-2.9-3.4-.6-4.1 2.8-1 2.8 3.4.6 4.1z" fill="#fff" opacity=".3"/><g fill="#8d9ff7" opacity=".1"><path d="m264.9 268.9v-21.8l-67.6 18.1v21.8z"/><path d="m343 247.8v-21.6l-67.6 18.1v21.6z"/><path d="m343 199.2v-21.8l-67.6 18.1v21.8z"/><path d="m264.9 296.4v-14.5l-67.6 18.1v14.5z"/></g><path d="m300.8 366.3v-21.1l-65.1 17.5v21z" fill="url(#aa)"/><path d="m347.5 340v-21l-65.1 17.5v21z" fill="url(#ab)"/><path d="m332.8 334.9c-1.2-.2-11.9 4.7-11.6 1.6-.4-2.8 10.1-3.8 11.6-4.7 2.3-.5 1.8 2.8 0 3.1z" fill="#fff" opacity=".3"/><path d="m318.2 339c-.9-.4-22.1 7.6-21.3 4.1-1-2.9 20.1-6.3 21.3-7.2 2.3-.5 1.8 2.8 0 3.1z" fill="#fff" opacity=".3"/><path d="m264.4 367.4c-1.1-.3-13.2 5-12.9 1.8-.4-2.9 11.4-4 12.9-4.9 2.3-.5 1.8 2.8 0 3.1z" fill="#bdcff0" opacity=".5"/><path d="m285.5 361.7c-1-.4-18.7 6.8-18 3.4-.8-2.9 16.6-5.5 18-6.5 2.3-.5 1.8 2.8 0 3.1z" fill="#bdcff0" opacity=".5"/><path d="m323.7 397.9v-17.6l-71.9 19.3v17.6z" fill="url(#ac)"/><path d="m362.8 208.3-130.5 35v52.5" fill="none" stroke="#adb7e0" stroke-miterlimit="10" stroke-width=".7903"/><path d="m311.3 239.1v-33.4" fill="none" stroke="#adb7e0" stroke-miterlimit="10" stroke-width=".7903"/><path d="m267.9 270.6v-21.9l-67.6 18.2v21.8z" fill="#fff"/><path d="m346 249.4v-21.5l-67.6 18.1v21.5z" fill="#fff"/><path d="m346 200.9v-21.9l-67.6 18.1v21.9z" fill="#fff"/><path d="m267.9 298.1v-14.6l-67.6 18.2v14.5z" fill="#fff"/><path d="m374.3 93.9c-1-.5-23.9 8.2-23 4.4-1.1-3.2 21.6-6.8 23-7.8 2.6-.5 2 3.1 0 3.4z" fill="#bdcff0"/><g filter="url(#a)" opacity=".4"><path d="m214.9 488.3c-14.6.5-15.2 12.5-6.9 11.9s22.9 4.3 47.3 3.4c24.4-.8 22.5-7.3 14-11.4s-35.6-4.5-54.4-3.9z" fill="url(#ad)"/></g><path d="m243.5 453.5c.4-6-27.1-6-25.2.9.8 4.6 3.6 16.2 4.5 20.2 1 4 16.8 3.7 17.6 0s3.1-21.1 3.1-21.1z" fill="url(#ae)"/><path d="m230.9 457.3c31-2.6-9-14-11.5-3 .4 3.4 11.5 3 11.5 3z" fill="url(#af)"/><path d="m230.7 455c-.8-10-2.9-41.6-10.3-54.5" fill="none" stroke="url(#ah)" stroke-linecap="round" stroke-miterlimit="10" stroke-width=".6729"/><path d="m220.3 439.1s-6.2-6.9-11.1-9.7c-9.7-4.5-18.2-20-29.5-20.4 20.8-4.7 21.6.1 33.1 8 8 1.3 7.6 18.9 7.5 22.1z" fill="url(#aj)"/><path d="m226.8 455c1.3-13.1-15.8-24.8-22.6-28.3" fill="none" stroke="url(#ak)" stroke-linecap="round" stroke-miterlimit="10" stroke-width=".6729"/><path d="m233.9 424.6c1.6-11-4.2-23.4 4.4-32.6 3.9-4.6 15-14.5 21.5-17.4-6.3 12.1-5.3 34.8-15.8 37.3-5.3 1.2-10.1 12.7-10.1 12.7z" fill="url(#al)"/><path d="m232 454.9c-2.5-19.3 4.1-54 24.1-75.6" fill="none" stroke="url(#an)" stroke-linecap="round" stroke-miterlimit="10" stroke-width=".6729"/><path d="m234.8 454.9s-.4-9.8 2.3-13.8" fill="none" stroke="url(#ao)" stroke-linecap="round" stroke-miterlimit="10" stroke-width=".6729"/><path d="m219.2 437.9c-9.1-17.2-9.2-14.5-26.3-22.6 10.5 15.6 17.4 15.1 26.3 22.6z" fill="#0053df"/><path d="m223.7 409c-7.3-16.7-16.8-24.2-36.6-25.8 2.4-2.3 17.8-7.3 23.1-3.7 0 0 10.9 2 12.7 6.6 1.8 4.7.8 22.9.8 22.9z" fill="#0053df"/><path d="m223.7 409c.9-11.7-2-21.3-13.4-29.4-3.1-5-22.8 1-23.5 3.8 17.1 1 29 9.3 36.9 25.6z" fill="url(#ap)"/><path d="m268.2 414.3c-3.6-7.7-22.2-6-26.2 2.4-2.7 4.5-4.8 10.3-6.3 13.7 6.9-4.1 13.6.2 18.2-6.4 2-5.4 10-10.5 14.3-9.7z" fill="url(#aq)"/><path d="m235.8 443c.3-4.1 10.9-15.2 17.3-9.8-.2 1.7-5 5.6-8.7 7.6-1.6.9-7.4.4-8.6 2.2z" fill="url(#ar)"/><path d="m256.6 413.4s-25.7 12.3-25 29.6" fill="none" stroke="url(#as)" stroke-linecap="round" stroke-miterlimit="10" stroke-width=".6729"/><path d="m328.2 196.6c-1-.6-33.4 11-32.4 7-2.1-2.9 31.6-9.5 32.4-10.4 2.6-.6 2 3.1 0 3.4z" fill="url(#at)"/><path d="m304.1 396c-1-.6-33.4 11-32.4 7-2.1-2.9 31.6-9.5 32.4-10.4 2.5-.6 1.9 3 0 3.4z" fill="#c5d1ea"/><path d="m304.3 252.2c-1.3-.3-13.1 5.2-12.8 1.8-.4-3.1 11.1-4.2 12.8-5.2 2.6-.6 2 3 0 3.4z" fill="url(#au)"/><path d="m331.2 245-21.8 5.8c-2.6.5-1.9-3.1 0-3.4 0 0 21.8-5.8 21.8-5.8 2.5-.5 1.9 3.1 0 3.4z" fill="url(#av)"/><path d="m230.2 271.6c-1.3-.3-14.6 5.5-14.2 2-.5-3.2 12.6-4.4 14.2-5.5 2.6-.4 2 3.2 0 3.5z" fill="url(#aw)"/><path d="m253.5 265.4c-1-.4-20.7 7.5-19.8 3.7-.9-3.1 18.4-6.1 19.8-7.2 2.6-.5 2 3.1 0 3.5z" fill="url(#ax)"/><path d="m399.3 26.1c-1.3-.3-14.6 5.5-14.2 2-.5-3.2 12.6-4.4 14.2-5.5 2.6-.4 2 3.2 0 3.5z" fill="#fff" opacity=".2"/><path d="m429.7 78.8-12 3.3c-2.6.5-1.9-3.1 0-3.4 0 0 12-3.3 12-3.3 2.6-.5 2 3.1 0 3.4z" fill="#bdccf0"/><path d="m249.2 297.8c-1-.6-33.4 11-32.4 7-2.1-2.9 31.6-9.5 32.4-10.4 2.6-.6 2 3.1 0 3.4z" fill="url(#ay)"/><path d="m162.1 131c.1 7.7-12 7.7-11.9 0-.1-7.7 12-7.7 11.9 0z" fill="url(#aA)"/><path d="m94.9 138.5c-8.7-2.6-28-3.9-24.6-22.4.1-6.1 0-11.6 2.3-15.1 5.9-10.4 39.1-17 49.7-14.8 4.9.4 20.6 3.7 24.3 5.4 10.6 3.5 8.8 31.5-2.3 35.4-9.5 5.9-39.7 15.6-49.4 11.5z" fill="url(#aB)"/><path d="m85 116.3c-2.7-2.7-8.4 1.5-3.9 6.1 4.4 4.6 23.9 23 26.2 25.3 2.2 2.3 7.6-1.1 4-5.3s-26.3-26.1-26.3-26.1z" fill="url(#aD)" opacity=".4"/><path d="m126.6 94c4.8-1.1 27.2-5.4 26.9 8.5.5 11.8 2.5 24.2-14 28.6z" fill="url(#aE)"/><path d="m147.6 114.8c1.1-16-4.3-22.3-21-20.8-5.8 1.2-28.3 4.5-31.7 14.6-3.9 14.5-1.7 31 15.6 26.2 9.3-2.8 40.2-5.4 37.1-20z" fill="url(#aF)"/><path d="m153 99.8c-3.4-14.7-37.3-4.8-50.4 1.4-8.8 5.7-8.8 9.5-8.7 13.3 0 9.3-.8 21.8 10.8 23.6 4.4-.3 37.9-8.3 43.6-12.1 7.9-6.2 5.3-20.4 4.7-26.2z" fill="none" stroke="#072785" stroke-miterlimit="10" stroke-width="1.1869"/><path d="m114.8 111.4c0-3.4-3.4-1.7-3.4.8s0 8.6 0 11.2 3.4 2.2 3.4-.8 0-11.2 0-11.2z" fill="#f2ebff"/><path d="m134.1 106.8c0-3.4-3.4-1.7-3.4.8s0 8.6 0 11.2 3.4 2.2 3.4-.8c0-2.9 0-11.2 0-11.2z" fill="#f2ebff"/><path d="m82 116.3c-2.7-2.7-8.4 1.5-3.9 6.1 4.4 4.6 23.9 23 26.2 25.3 2.2 2.3 7.6-1.1 4-5.3s-26.3-26.1-26.3-26.1z" fill="url(#aG)"/><path d="m112.6 144.8c.1 7.1-11 7.1-10.9 0-.1-7.1 11-7.1 10.9 0z" fill="url(#aH)"/><path d="m109.8 140-3.7 2.3v4.6l5.4-.9z" fill="url(#aJ)"/><path d="m157.7 118.9-48.6 13.1v43l48.6-13z" fill="url(#aK)"/><path d="m116 141.4c-.7 4.1 2.4 10.6-3.6 12.8-10.3 3.4-7.2-6.2-7.7-11.4 6.6 2.7 5.4 1.3 11.3-1.4z" fill="url(#aL)"/><path d="m109.1 140.9c-5.5 3.5 4 3.3 4.7.3 1.1.1 2.2.2 2.2.2-3.5 8.2-19 2.3-6.9-2.3z" fill="#f2ebff"/><path d="m157.7 128.3v10.8l3.9-1-.2-9.8z" fill="url(#aM)"/><path d="m158.2 132.2 4.8-2.7c-.7 2.8 2.4 11.4-3.9 11.9-3.4.7-5.6-1.8-5.6-1.8v-8.6z" fill="url(#aN)"/><path d="m157.7 126.5c12.3.8.5 10.6-4.3 4.5 3.7-1.8 2.1-.1 5.8-.5 2.9-1.3-.7-2.5-1.5-2.2z" fill="#f2ebff"/><g fill="none" opacity=".4" stroke="#f2ebff" stroke-miterlimit="10" stroke-width=".9063"><path d="m126.1 148.6c-9.1 8.2 2.1 20.6 9.3 11.5 6.1-6.9-1.6-18.1-9.3-11.5z"/><path d="m127.3 152.3-1-11.5"/><path d="m141.2 132.3c-1.2-3.5-3.8-5.1-9.1-2.7-5 2.2-10.1 13.2-5.2 16.7 4.5.4-1.7-10 7.9-14.9 2.9-1 5.2 6 5 7.5-.2 1.4-1.5 4.6.5 4.7 5.1-1.2 3.4-16.8-7.3-12.5"/><path d="m135.6 128.6s-3.6 2.4-4.8 6.6"/><path d="m129.4 162.1c2.3-.3 4.6-1.9 3.8-6.7-1.3-7-8.5-5.3-9-1"/><path d="m129.3 154.1c2.9 2.6 2.7 7.8-1.8 8.5-6.7-.9-4.9-12.5 1.8-8.5z"/><path d="m135.8 159.6c6.4 1.7 13.1-12.9 4.4-14.9 0 0-3.8-1-6.4 2.5"/><path d="m135.4 148.4c6.5-4.7 6.7 5.9 2.2 7.7"/><path d="m140.1 143.5-.2 1.2"/></g><path d="m399.2 244.1c-3.1-4.1-9.6-15.1-15.4-18-2.2.7-10.4-.6-8.2 2.7 1.1 1.8 5.7.2 6.5.8 1.1 3 12.6 17.9 13.7 18.8z" fill="url(#aP)"/><path d="m387.1 235.2c-1.1-1.8-5.9-4.8-6 .5.2 5.9 6 2.3 6-.5z" fill="url(#aQ)"/><path d="m385.2 238.6c-5.1-8.1-9.1 3.2-3.2 4.1 2.1 0 3.2-4.1 3.2-4.1z" fill="url(#aS)"/><path d="m383.8 241.6c-5.1-8.1-9.1 3.2-3.2 4.1 2.1 0 3.2-4.1 3.2-4.1z" fill="url(#aT)"/><path d="m381.7 243.3c-9.7-6.4-1.7 14.3 2.9 8.3 0 0 2 1 3.2 1.1s2.9-.5 3.8.8 2.4 1.9 2.4 1.9l4.1-8.7-13.1-10.2z" fill="url(#aU)"/><path d="m386.2 233-1 5.6 9.5 12.2 4.8-4.7z" fill="url(#aV)"/><path d="m405.2 248.3c-4.7-3.1-6.3-9.1-11.4.6-3.9 9.8 1.4 8.9 6 13.5l7.8-12.8z" fill="#f2ebff"/><path d="m426.5 218.5c-9.4-1-11.4-5.7-16.9-11.9-2.2-1.7-9.7-6.8-3.2-8.2 19.4-7.7 17.9 4.7 25.6 15.6z" fill="url(#aX)"/><path d="m431.9 197.3v-21.4l-67.6 18.1v21.4z" fill="#fdbe1a"/><path d="m478 211.2c-2.9-16.7 2-11.4 6.3-27.5 2-33.1-40-27-37.3 8.8 2.9.5 2.6 9.6 3.5 12.4.1 3.4 7.1 1.5 8.1 1.7 0 0 .8 9.4 1.1 12.6s18.8-1.7 18.3-8z" fill="url(#aY)"/><path d="m463.2 191.9c1.1.7 8.6 16.6 6.1 21.1-.8 5 12.5 0 11-2.7-2.3-4.2-1.9-8.5-1.9-8.5l-13.2-11.7z" fill="#ca7383"/><path d="m458.5 191.4s.7 2.6 3.6 1.5c4.2-1.5 3.7-7.3 3.7-7.3l-5.8 2.3z" fill="url(#aZ)"/><path d="m457 183.6c.6-1.9-6.7-8.5-7.3-9.3l1.8-3.2 11.8 2.8z" fill="url(#a0)" opacity=".3"/><path d="m480.2 200.6c-4.2 10.5-15.2-6.2-15.7-9.9-.5-2.9-7.4-3.8-7.7-8.5 1.4-8.2-9.8-7.2-7.7-12.9 7.9-11.5 33.8-14.2 37.3 4.9 1.7 12.4-4.7 18.4-6.2 26.4z" fill="url(#a1)"/><path d="m465.3 190.1c8.5-1.2 13.7-37.5-10.7-25.7-13.6 9-.4 7.6 1.7 14.6.2 4.1.5 5.9 2.3 6.8 1.9.9.7-4.4 4-3.9 3.5.6 4 5.1 2.7 8.2z" fill="url(#a2)"/><path d="m461.3 181.3c3.7-.5 4 8 .9 10.2-7.8 4.3-5.8-9.6-.9-10.2z" fill="url(#a3)"/><path d="m410.5 194.5c-1-.5-23.9 8.2-23 4.4-1.1-3.2 21.6-6.8 23-7.8 2.5-.5 1.9 3.1 0 3.4z" fill="#f2ebff" opacity=".5"/><path d="m433.2 209.5c-3.7-2.5-2.6-7.5-5.3-10.1-1.5-.9-4.1-5.1-4.1-5.1s-3.1 0-4.7-.3c-5.6-.1 1.4 5.1 2.3 4.3 1.7 5.7-2.2 6.6-.7 9.9 2.5 3.8 12.1 9.6 12.5 1.3z" fill="url(#a4)"/><path d="m425.4 198.2c3.9 4 5.3 8.8 2.9 13.3-1.9 1.7-2.3 4.5-7.3 1.8-5.1-2.7 1.1-5.2 2.2-7.2 2-3.1-1.7-10.5 2.2-7.9z" fill="url(#a5)"/><path d="m438.7 213.5-5.5-4.5s-4.9-.3-7.4 5.4c-2 6.9 3 8.2 5.4 12.5z" fill="#adb6e3"/><path d="m428.7 210.6c5.1-3.7 6.4.7 9.8 2.7-2.7 5.4-11.2 1.5-9.8-2.7z" fill="#f2ebff"/><path d="m454.3 226.4-14.5-13.3s-3.9-1.2-7.2 3.6c-4.3 6.1-2.5 13.2-2.5 13.2l10.8 12.8z" fill="url(#a6)"/><g filter="url(#a)" opacity=".4"><path d="m404.6 484.6c-.4 3.4-133.4 10.6-83.5 17.3 20.3 2.3 50.7-1.9 68.9-4.6s41.3 4 94.6-2.5 48.6-15.6 29.4-19.7-69.1-.1-109.4 9.5z" fill="url(#a7)"/></g><path d="m472.2 405c12.6 3.7 5.7 26.4-9.5 26.7-18.9 1.3-6-28.7 9.5-26.7z" fill="#00061c"/><path d="m475.3 409.1c3 3.3 3.6 16.8-2.1 18.7l-.6 4.6s.4 0 .9.3c-1 4.6-3.4 8.5-7.4 9.6-3.9 1.1-6.3 7.6-10.5 8.2s-6.3 0-6.3 0-3.4-7 1.1-13.5c4.2-7.2 3.4-4.2 3.7-10.7-1.2-9.6 10.3-26.2 21.2-17.2z" fill="url(#a9)"/><path d="m463.6 423.3s-3 5.9-3.8 8.6c-1.9 5.1-10.9 11-10.5 18.6 4.1 2.8 24.1-16.5 23.2-15.4 0-7.9 2.8-11.4 6.1-17.8 0 0-.1-6.4-3.9-8.1-3.7-1.7-12-5-15.9 1.6-.7 1.1-4.6 10.1-4.5 11.1 6.1-10.3 6.4-1.9 9.3 1.4z" fill="url(#bb)"/><path d="m496.9 322.8c-1.1 6.7-8.6 13.6-15.1 18.5-14 13.3-17 11.9-13.3 27.4 4.4 10.4 6.8 34.2 9.8 43-5.7-7.6-25.4 2-24.6 12 .3-8.7-10.8-42.3-14.7-50.4-2.3-4.9-4.2-12.7.2-18.6s18.7-26.5 29.6-40.2c10.8-13.7 29.7-1.4 28.1 8.3z" fill="url(#bc)"/><path d="m390.9 429.4c.5.9 4.3 12.5 1.9 14.3 0 0-7.2 4.5-11.8 2.8-5.8-3.3-2.5-1.5-8.1 1.1-2.8 3.5-37.4-3.7-24-13.4 5.5-2.9 16.5-1.6 21.1-7 3.5-2.9 20.8-2.3 20.9 2.2z" fill="url(#bd)"/><path d="m393.6 438.2c-.2-.9-.5-2.2-.9-3.5 0 0-19.1-8.3-19.1-2.7s9.2 6.6 9.2 6.6l.9 2.3-7.5.8c-7.1 8.8-26 1.1-30.4-3.3 0 0-.8 3.2 5.8 6.1 10.8 4.5 20.1 5.9 25.5.3 0 0 1.6-.4 4 1.7 4.6 1.7 11.8-2.8 11.8-2.8s1.2-2.6.7-5.5z" fill="url(#be)"/><path d="m393.6 438.2c-.2-.9-.5-2.2-.9-3.5 0 0-19.1-8.3-19.1-2.7s9.2 6.6 9.2 6.6l.9 2.3-7.5.8c-7.1 8.8-26 1.1-30.4-3.3 0 0-.8 3.2 5.8 6.1 10.8 4.5 20.1 5.9 25.5.3 0 0 1.6-.4 4 1.7 4.6 1.7 11.8-2.8 11.8-2.8s1.2-2.6.7-5.5z" fill="url(#bg)" opacity=".8"/><path d="m473.2 329.2c-13.6 23.1-36.3 36-47.3 53.3-1.9 3.6-13 23.5-16.3 26.7-5.6 4.9-15.1 23.1-18 27 0 0-6.6 1.8-14.9-3.7s-4.8-11.5-4.8-11.5 17.8-24.6 22.6-32.6 10.6-22.8 11.4-26.4c7-11 21.6-25.6 31.4-37.9 11.9-14 42.9-6 35.9 5.1z" fill="url(#bh)"/><path d="m436.3 326.8-2.7 3.5s5.1 10.5 22 9.2c-5.7 10-17.1 28.2-17.1 28.2 9.4-10.1 76.4-57-2.2-40.9z" fill="url(#bi)"/><path d="m448.9 227.1c11.6-5.9 33.2-18.6 46.3-12 19.9 5.1 8 37.3 4 48.3-.7 5.4-.1 23.2 1.3 28.7 5.5 22.5 6.1 31-20.4 37.3 1.4-4.7 2.3-16.1 1.8-20.1-1.3 9.7-4.3 21.4-5.7 22-17.3 6.4-34.4 6-43.7-9 0 0 7.8-8.8 8.8-10.9 2.3-4 4.3-10.5 7.1-11.4.8-11.1-4.8-37-6.3-50.4-.2-5.2 5-20.7 6.8-22.5z" fill="url(#bj)"/><path d="m394.8 247.1c2.7-7.7 9.5-.8 11.6 1.6l-5.3 4.6z" fill="#adb6e3"/><path d="m450.5 226.7c-1.9.2-5.4 2.3-5.9 4-1.9 4.2-17.1 25.2-19.6 30.1-1.6-1.1-16.7-12.3-19.8-13.6-3.8-1.4-10.6 14-7.4 16.2 1.5 2.3 14.8 11.8 17.4 14.3s10.8 9.3 14.8 9.1 7.6-2.7 9.3-6.4 12.7-16.2 14.8-19.6 4.6-5.9 7.3-9.6c5.1-7.9.1-25.6-10.9-24.5z" fill="url(#bk)"/><path d="m489.4 216.9s-4.6-4.2-5.9-6.2c-1-1.5-7.2-2.1-15.8.5-10.5 3.5-11.9 10.1-14.3 13.8 2.7-3 33.5-10.5 36-8.1z" fill="#0a38a6"/><path d="m464.2 429.6 11.3-1s2.3-7.6 2.3-10.1-7.8-4.2-10.5 1c-2.8 5.2-3.1 10.1-3.1 10.1z" fill="url(#bl)"/><path d="m473.5 432.7s-7.5 1.1-13.5 1.9c-.9 2.9-8.5 14.5-10.8 15.9 10 3.9 23.4-10.8 24.3-17.8z" fill="url(#bm)"/><path d="m463.6 429.7 11.9-1s2.4-7.1 2.6-9.6c.2-4-8.8-5.1-10.8.5-2 5.4-3.7 10.1-3.7 10.1z" fill="url(#bn)"/><path d="m473.5 432.7c-17.2.6-15.3 3.9-24.2 17.8 9.9 3.9 23.3-10.8 24.2-17.8z" fill="url(#bo)"/><path d="m450.6 205.7s5.4-.2 7.6-2.6c.1 2.3.2 3.5.2 3.5 0 .1-7.8 1.1-7.8-.9z" fill="url(#bp)"/><path d="m379.2 433.9s9.8-13.9 15.3-21.9c2.9-4.2 9.2-13 15.1-21.6 1-1.5 5.1-1.5 6.1-2.9 1.8-2.7-14-6-11.3-5.9 12.5.4 16.6-8.4 17.5-10.2 4.6-8.7 27.6-33.5 27.6-33.5l6.1 1.7s-9.4 20.8-18.4 30.1c-12.3 12.6-22.8 34.6-30.9 43.3 0 0-14.8 23.3-14.8 23.3s-6.6 1.9-12.3-2.4z" fill="url(#bq)"/><path d="m459.5 413c-2.4-3.5-5.8-47.6-18.3-34.2 0 0 6.7 17.6 8.6 25.1s4.2 22.4 4.2 22.4-.2-8 5.5-13.3z" fill="url(#br)"/><path d="m399.6 251.9s2.4-4.7 5.9-4.5c5.3 2.2 19.4 13.4 19.4 13.4l-9.5-1.8z" fill="url(#bs)"/><path d="m461.9 250.2s3.1-16.1-3.4-5.8c-4.5 7.1-24.5 33.5-26.7 35.6-5.1 4.9-14.6-.4-14.6-.4 9.6 12.2 21.2 6.6 26.9-4.5 0 .1 17.8-24.9 17.8-24.9z" fill="url(#bu)"/><path d="m379.3 237.7s2.5-.8 4.8 2.2 9.2 8.7 9.2 8.7l-8.5-14.4c-2 .9-4.7.5-5.5 3.5z" fill="url(#bv)"/><path d="m380.7 246.3s-.5 1.5.8 3.9.2 2.4.2 2.4 1.2.9 2.9-1.1c-1.5-2.2-3.9-5.2-3.9-5.2z" fill="url(#bw)"/><path d="m382.5 238.4s-1.2-2.6.9-2.8c-.2-4.4-2.6-2-2.4-.2-3 1.6-1.7 3.9 1.5 3z" fill="url(#bx)"/><path d="m381.9 228.1c-.3-1.6-3.2-1.8-4.8-1.4-2.5.3-1.7 1-1.4 1.3.7 1 5.8 0 6.2.1z" fill="url(#by)"/><path d="m430.3 221.4s4.7 6.2 12.7 4.2c12.5-3.1-.8-8.6-3.3-12.3-3.4-1.9-9.5 5.4-9.4 8.1z" fill="url(#bz)" opacity=".5"/><path d="m500.1 260.8c8.5-16.3 12.8-49.1-14.2-47.2-3.6-3.3-1.8-5.2-11.7-3.9 10.2 11.4-7 12-16.3 18.6-9.3 4.7-9.9 6-4.6 8.2 9.9 4 1.8 21.2 1.8 21.2s-10.4 12.4-10.4 12.4l3.1 15.2s7.4-19 7.4-19c17.2-3.8 28.7 27.3 13.6 39.6-.5 1.5 4.7 2.8 4 4.2-7.3 14.1-17.3 23.8-17.3 23.8s11.8 2.8 38.4-6.6c5.9-2.1 9.2-9.9 9.2-9.9 1.6-8.2-7.4-46.8-3-56.6z" fill="url(#bA)"/><path d="m500.1 260.8c8.5-16.3 12.8-49.1-14.2-47.2-3.6-3.3-1.8-5.2-11.7-3.9 10.2 11.4-7 12-16.3 18.6-9.3 4.7-10.3 7.2-4.6 8.2s7.1 12.5-.2 22.6c-7.7 7.7-18.2 18.1-21.3 21.1-5.1 4.9-14.6-.4-14.6-.4 11.4 13.6 21.6 5.2 28.2-6.4l2.4 12s7.4-19 7.4-19c17.2-3.8 28.7 27.3 13.6 39.6-.5 1.5 4.7 2.8 4 4.2-2.1 2.6-4.5 10-17.3 23.8 1.6.3 4.3.7 11.3 0-22.2 5.7-30.6-7.2-30.6-7.2l-2.7 3.5s3.6 7.3 14.6 9c-5 5.4-22.3 24.6-26.2 32.1-1 1.8-5 10.7-17.5 10.2-2.8-.1 13.1 3.2 11.3 5.9-1 1.4-5.1 1.5-6.1 2.9-5.9 8.6-12.2 17.4-15.1 21.6-5.5 8-15.3 21.9-15.3 21.9 5.8 4.2 12.4 2.2 12.4 2.2l14.8-23.3c8.2-8.8 18.7-31 31.2-43.6 4.5 10.3 16.3 43.2 16.3 54.4-1.1-9 18.2-20 24.6-12-3.4-10.5-5.2-31.7-9.8-43-2.1-4.5-1.1-12.8-1.1-12.8 4.4-6.7 31.9-28.6 35.8-38.4 1.3-8.1-7.7-46.8-3.3-56.6z" fill="url(#bB)" opacity=".5"/><path d="m59.7 442.3c1.9-1.3 4.5-13.5-1.5-13.5-4.5-.5-6.2-.8-6.6 3.2-1.4 8.8.6 13.1 8.1 10.3z" fill="#b4c2f5"/><path d="m55.5 442.7c-3.3-8.5 6.8-26.1 12-35 5.4-9.8-14-23.3-16.9-13.9s-5.1 23.6-7 30.5c-2 6.8-3.2 11.9 3 16.6 6.1 4.6 8.9 1.8 8.9 1.8z" fill="url(#bD)"/><path d="m50.4 428.8s5.2-13.1 9.6-21.7c4.4-8.7-8.7-16.4-8.7-16.4-1 3-7.8 34.3-8.5 37z" fill="url(#bF)"/><path d="m44.5 425.8c3.9-.5 6.8 3.3 7 6.2-1.3 7.8 0 10.9 6 6.3 2.5 3 4.7 13.8 6.8 18.5 1.4 3.1 5.6 12.6.5 17.4.2-6-6.5-12.2-10.4-15.3-6.5-7.6-10.2-22.5-22.7-16.5 0 0 .6-3.5 3.1-6.1 4.9-4.3 2.8-9.2 9.7-10.5z" fill="#b4c2f5"/><path d="m46.6 444.1c.7-3.2 1.5-5.8 3-9.9 1.3-4-2.4-10.8-8.5-7-4.2 2.5-2.3 5.2-4.4 6.9-12.3 10.9 4.1 9.4 9.9 10z" fill="#fff"/><path d="m32.1 441.4c-1.5 2.4 4.6 11 6.6 12.7 2 1.8 6 2.7 6.4 5.4-1.9 6.9 18 21.9 20.5 12.8 0-6.8-10.3-13.8-12.9-18.4-1.9-6.2-13.7-20.3-20.6-12.5z" fill="#a5b7ed"/><path d="m40.8 333.9c2.3-7.3 9.6 2.8 12.7 4.6s12.9 6.3 16.9 7.5c21 4.9 32 15.5 16.3 35.1 0 0-2 6.2-4.3 10.3s-25.9-12.1-25.9-12.1-21.1-27.8-15.7-45.4z" fill="url(#bH)"/><path d="m126.5 308.7-43.4 11.6v51.2l43.6-11.7z" fill="url(#bI)"/><path d="m114.8 453.1c-14.3-6-21.5-39.1-26.8-49.1-2.4-3.6-21 1.8-18 11.7s9.9 20.1 15.3 26.4 15.1 12.4 16.3 17.9 20.4 0 13.2-6.9z" fill="url(#bJ)"/><path d="m72.4 422.1s3.5 0 6.2-1.1c3.2 6.3 19.6 31.5 23.5 34.9 2.6 2.8-3.1.9-3.1.9-1.8 0-26.3-28.2-26.6-34.7z" fill="url(#bK)"/><path d="m138.1 449.8c5 4.3-1 13.1-7.1 16.1-4.4 1.7-7.9.6-8.7 1.1-2.1 2.3-6.8 7.4-14.2 7.6-8.7-.4-7.5-1.9-7.7-4.2 0 0 33.9-22.2 37.7-20.6z" fill="#a5b7ed"/><path d="m98.4 457c-.3-2.9 6-1 7.4 1.3s6 2.8 7.6.8c2.8-3.3.7-7.5-2-8.7 3.1-2.5 19 .4 22.3-1.7 11.1-1.7 2.7 16.6-12.7 15.4-2.9.6-2.7 4.3-7 6-4.3 1.8-11.5 2.1-14 0 0-3.7-1.3-10.5-1.6-13.1z" fill="#b4c2f5"/><path d="m138.1 449.8c-1.1-1.5-3.1-1.9-4.4-1.1-1.6 1-10.7 1.4-14.2.6s-8.1 1.2-8.1 1.2c5.8-1.5 6.4 6.1 3.4 10.2-1.6 2-9.3.8-10.7-1.4s-6-5.1-5.7-2.2c.7 2.6.9 10.1 2 13.4.2 2.3-1 3.8 7.7 4.2 7.4-.2 12.1-5.3 14.2-7.6.8-.6 4.3.6 8.7-1.1 6-3.1 12.1-12 7.1-16.2z" fill="url(#bM)" opacity=".3"/><path d="m114.8 453.1c-13.4-8.2-1.6-12 2.9-6.6 3.3 4.1-.9 9-3.2 10.3z" fill="#b4c2f5"/><path d="m90.4 407c-1.9 7.2-18.9 15.4-25.6 11.4 0 0-8.7-10-9.6-15.5-4.1-15.1-6.7-5.3-19-17.1-11.3-11.2-28-12.9-32.6-30-2.1-7.4 0-14.2 0-14.2s23.6-14.1 31.6-8.1 8.9 12.1 14.5 17.2c5.6 5 14.8 9.9 15.2 13.4 2.8 9.7 8.5 13 15.8 22.4 2.4 5.8 9.7 20.5 9.7 20.5z" fill="url(#bN)"/><path d="m3.4 351.9s7.5.7 14.7 5.7c12.3 8.6 30 7.3 34.2 13.6 1.6 2.4 10.3 12.2 12.6 15 2.6 3.3 7.6 8.8 10.8 10.7 2.3 1.4-3 5.8-2.3 8.2 2.1 7.3 3.8 11.1 3.8 11.1s11.5-3.7 13.2-11.1c-5.9-16.6-11.7-24.1-11.7-24.1s-11.5-11.8-11.2-15.5c3-8.7-16.5-9.6-25.2-26.6l-39.7 5.5c0 0-.1 4.9.8 7.5z" fill="url(#bO)"/><path d="m44.5 444.1c3.7 2.5 6.1 11.7 10 14.8s10.6 9.3 10.4 15.3c7-7.9-3.8-23.1-5.2-31.9 1.9-1.3 4.5-13.5-1.5-13.5-.4 11.6 1.8 17.9-13.7 15.3z" fill="url(#bP)" opacity=".3"/><path d="m77.2 223.1-7.5 4.5c-5.7 5.8-5.4 12.7 4.9 12.7z" fill="url(#bQ)"/><path d="m111.8 199.1-38.4 10.2v39.3l38.4-10.3z" fill="url(#bR)"/><path d="m111.8 199.1-38.4 10.2v39.3l38.4-10.3z" fill="url(#bS)" opacity=".1"/><path d="m62.2 245.9c-1.9-1.3-4 3-5.3 3.8-2.5 8.5 5.3-2.6 5.6-2.9z" fill="url(#bU)"/><path d="m58.1 277.2c2.6-2.9 10.8-24.2 17.3-26.7 3-1.6 3.3-3.5 3.3-3.5l-4.3 1.2c-.5-4.1 1-4.4 2.8-7.5-1.2-4.4-2.8-9.3-5.3-9.7-8-.5-6.8 10.1-9.8 15.5-2.9 4.1-13.9 15.3-14.6 16.8z" fill="url(#bV)"/><path d="m68.4 238s4.3-5 5.9-7c1.5-1.4 8.9-6.9 8.2-3-7.1 8.9-3 5.1-6.2 15.1-2.4 4.5-9.7.8-7.9-5.1z" fill="url(#bW)"/><path d="m54 268.8 9.2-16.1s-.1-2-3.9-2.4c-1.1-.1 5.9-1.1 5.9-1.1-.6-7.2 9.8-13.9 10.2-19.3l-3.9 3.8c-1.2-5.3 1.9-5.6 1.9-8.3-6.9 1.6-10.2 16.4-11.5 21.3 0 0-14.4 16.7-14.4 16.7z" fill="url(#bX)"/><path d="m71 254.2c.6-3.1-5.9-9-9.6-7.1 0 0-2.8 3.3-2.8 3.3 4.8-2.2 12.2 4 9.8 7.7 1 .3 2.8-4.2 2.6-3.9z" fill="url(#bY)"/><path d="m12.1 350.6c11.4 4.5 28.5-10.3 35.1-4.3 1.5-9.8 5.2-8.6 5.2-8.6-5.7-11.5-5.1-5.5-5.8-19.8-1.1-2.7-1.3-19.3 1.8-25.8s7.1-23.8 4.3-28.1c-6.5-11.9-30.2-27.2-44.6-15.7-7.9 8.7-6.7 24-5.4 32.8 1.3 8.7 0 29.1 0 29.1-5 .7.4 11.3-1.5 13.6-1.4 2.6-.9 8.1-.9 8.1s.1 13.7-.1 17.3 2.7-1.1 11.9 1.4z" fill="url(#b0)"/><path d="m53 264.5c-7.8-10.2-26.3 7.2-17.3 18.8 8.9 11.5 16.8 19.2 16.5 18.8 4.3 0 15-7.3 15.3-13.5-1.7-3.3-11.6-21.3-14.5-24.1z" fill="url(#b1)"/><path d="m53.4 289.6c5-6.8-7.4-11-7.9-17.3-.8-13.6-18.5-9.1-22.8-20.2 10.4-9.8-10-10.1-15.3-3.5-10 8.5-3.6 52.6-4.9 59.2-4.4 3.7-.8 11.3-1.1 15-2.7 4-.8 25.3-1.4 27.7 3.5-9.5 34.2-6.3 28.4-16.4-1.4-1.7-5.9-5.5-1.9-7.1 6.4-2.8.1-10.2 6.7-21.6 3.2-8.1-1.9-12.9-1.2-16 5.7-11.6 13.2 13.5 21.4.2z" fill="url(#b2)"/><path d="m95 284.6c1.5-4.7 2.2-10.2 7.3-14.6 1.3-1.2 1.9 1.1.9 3.4-1.1 2.3 1.7 4.7 1.7 4.7z" fill="url(#b3)"/><path d="m102.4 238.2v39.4l45.1-12.1v-39.4z" fill="#1651e0"/><path d="m66.2 288.5 5.5 9.4c3.3-2.7 20.2-10.8 25-15.2 3.7-3.2 9.4-8 11.4-5.5 8.4 9.2-3.2 14-10.1 18.4-3.7 2-18.2 14.3-21 17.3-8.5 8.4-18-8.2-23.4-13.5-3-4 7.2-16.3 12.6-10.9z" fill="url(#b4)"/><path d="m53.6 222.2c23.3 2.2 12.5-14.8-1.8-8z" fill="url(#b5)"/><path d="m40.4 252.7c2.4 6.6-22.6 4.3-17.6-4.8 4.9-7.2-1.2-20.8-.7-30.8.9-6.4 4.6-14.7 19.2-13.6 13.8 1.1 12.2 18.7 12.2 23.1-.4 4.2 1.7 6.5-1.5 8.2-1.5 7.2-1 12.3-11 11.6-.2.5-1.9 5-.6 6.3z" fill="url(#b6)"/><path d="m29.3 255c4.6-.1 2.3-5.6 2.7-8.7.4-5.4-6.1-.7-7.5-4.2-1.1 4.8-4.4 12.2 4.8 12.9z" fill="url(#b7)"/><path d="m26.1 242.7c7.9 3.2 14.1-19.8 17.4-15.4.6 2 3 2.6 3.2-.5.2-3.5 2.2-10.2 2.2-10.2s-12.2-17.9-20.2-11.8c-8.5 6.6-6.9 15.4-6.7 18.6 1.1 5.2-.9 17.6 4.1 19.3z" fill="url(#b8)"/><path d="m43.9 228.1c-2.5-7.2-8.5-1.6-4.8 3.6 1.8 2.1 6.8-.2 4.8-3.6z" fill="url(#b9)"/><path d="m66.3 215.9c-.5-.7-9.2-2.1-9.2-2.1l-3.9 6.6.4 1.9c.7.1 18.1.6 12.7-6.4z" fill="url(#ca)"/><path d="m56.7 219.8c-4.8 6.3-30.2 3.8-35.2 1.2-5.9-20.3 27-25 35.2-12.1.9 4 0 10.9 0 10.9z" fill="url(#cb)"/><path d="m38.2 222.8c-1.7-11.4 15.7-12.5 8-17.9-6-5.2-26.4.1-25.3 9 0 3.1.5 6.5.5 6.5-.7.9 17.1 3.4 16.8 2.4z" fill="url(#cc)" opacity=".5"/><path d="m29.8 221.1c.5-2.6-.6-9.6-5.7-6.5-1.7 5.3-1.7 5.4 5.7 6.5z" fill="url(#cd)"/><path d="m103.2 276s1.9-2.8 2.7-4.1c1.3-1.1 2.1-10.8 4.6-6.2.4 5.6-1.4 10.6-6 14.4-1.6 1.1-4.1-2.3-1.3-4.1z" fill="url(#ce)"/><path d="m105.5 278.8s2-2.5 2.8-3.6c1.2-.8 3.1-10.1 4.6-5.4-.4 5.3-2.3 9.8-6.8 13-1.6.9-3.2-2.6-.6-4z" fill="url(#cf)"/><path d="m106.9 282.7s1.7-2.5 2.4-3.7c1-.7 2.8-10.1 4.1-5.5-.5 5.2-2 9.6-6.1 13.2-1.3.9-2.6-2.5-.4-4z" fill="url(#cg)"/><path d="m106.6 285.3c3.8-1.7 3.7-13.9 5.7-8.9.2 1.5 1 6.3-.2 8.6s-3.9 3.7-5.4 4.8c-1.2 1-2.2-2.8-.1-4.5z" fill="url(#ch)"/><path d="m22 223.4c2.3 4.3 14.8-1.4 8.3 13.4-1.5 2.3-1.8 6.8-4.4 5.9s-2.7-3.1-2.7-3.1z" fill="url(#ci)"/><path d="m43.1 202.7c.1 1.7-6 1.7-5.9 0-.1-1.7 6-1.7 5.9 0z" fill="#001a7d"/><path d="m25.2 219.7c-1.5-7.4 5.8-4.4 4.5 1-.1.1-2.9-.2-4.5-1z" fill="url(#cj)"/><path d="m57.1 298.2c4.4-7.7 15 16.1 6.5 12-2.3-1.6-7.7-9.1-7.7-9.1s.4-1.3 1.2-2.9z" fill="url(#ck)" opacity=".4"/><path d="m84.9 290.1c-1.8 1-2 4.9 2 2.8 7.1-4.3 14.5-10.4 18-14.7 0 0 1.7-2.5 2.2-4.6.1-.8-.9-1.3-1.7-1-1 2.6-4.6 4.6-4.6 4.6l-.3-5.3c-7.5 8-1.9 11.1-15.6 18.2z" fill="url(#cl)"/><path d="m100 456.3c5.5.5 6.3 11.5 6.7 14-.1 1.9-6.9 1-6.8-.1 0 0-1.6-13.1-1.6-13.1z" fill="#fff"/><path d="m119.5 449.2c2.4 3.5 15.2 6.6 19.2 3.7.3-4.9-4.9-5.8-9.4-4.2-2.5.2-9.8.5-9.8.5z" fill="#fff"/><g fill="#b0bbf0"><path d="m101.4 325.4c-.4-.2-13.2 4.3-12.8 2.8-.8-1.1 12.5-3.7 12.8-4.1 1-.2.7 1.2 0 1.3z" opacity=".5"/><path d="m117.9 330.6c-.6-.4-29.3 9-29.3 7.2 0-.4.3-.8.7-.9l28.6-7.7c1-.1.8 1.3 0 1.4z" opacity=".5"/><path d="m120.5 334.2c-.7-.4-31.8 9.8-31.9 7.9 0-.4.3-.8.7-.9l31.2-8.4c1-.2.8 1.3 0 1.4z" opacity=".5"/><path d="m97.6 344.6-8.3 2.2c-3.7-1.3 8.1-3.3 8.3-3.6 1-.2.8 1.3 0 1.4z" opacity=".5"/><path d="m119.1 338.8-19.7 5.3c-.4.1-.7-.1-.7-.5-1-1.1 20.2-5.8 20.3-6.1 1.1-.2.9 1.2.1 1.3z" opacity=".5"/><path d="m105.5 346.7-16.3 4.4c-1 .2-.8-1.2 0-1.4 0 0 16.3-4.4 16.3-4.4 1-.2.8 1.3 0 1.4z" opacity=".5"/><path d="m117 343.6-9.5 2.6c-3.9-1.3 9.3-3.6 9.5-3.9 1-.2.8 1.2 0 1.3z" opacity=".5"/><path d="m117.9 347.6c-.6-.4-29.3 9-29.3 7.2 0-.4.3-.8.7-.9l28.6-7.7c1-.1.8 1.3 0 1.4z" opacity=".5"/></g><g fill="none" opacity=".6" stroke="#459dff" stroke-miterlimit="10"><path d="m122.9 256.8c1.3 8.7-6.2 12.2-7.5 2.1-1.3-8.6 6.1-12.2 7.5-2.1z" stroke-width=".8923"/><path d="m135.4 249.6c4.3 3.5 3.7 15.2-3.4 14.6-7.8.8-7.3-15.9.3-15.1" stroke-width=".9679"/><path d="m119.6 265.2c-10.5 3.5-9.8-16-1.4-14.6-.2-2.8.6-12.6 7.3-12.2" stroke-width=".8617"/><path d="m115.4 251.2c-2.7-13.6 15.7-19.8 16.8-1.3.2 1.6 2.3.5 3.2.3-.5-6-3.5-13.8-12.3-11.7" stroke-width=".9679"/><path d="m118.6 254.2c2.4-1 3 6.9 1 7.2-1.6-.1-2-6.3-1-7.2z" stroke-width=".8923"/><path d="m132.6 249.5c-4.2.9-4.1 13.5.2 14.6" stroke-width=".9679"/></g><g style="clip-path:url(#cm);opacity:.6;fill:none;stroke:#aba7de;stroke-width:.9351;stroke-miterlimit:10"><path d="m98.2 224.5s.2 1.3 1.2 1c2.1-1.1 0-6.2 1.4-9.4.7-1.6 1.2-2.9 1.2-2.9.6-1.4-2.7-4.2-4.3-3.5-1.4-.6-3.6 3.2-4.5 3.1v-1.7c-5.9-.2-7.2 9.9 0 6.9v-1.6c1.3-.8 1.6 1.7 3 1.5.6 0 1.8-.5 1.8.6s.2 6 .2 6z"/><path d="m101.9 213.2c-1.5 1.9-6-2.6-3.1-3.5"/><path d="m91.3 222.3c4.7-3.1 6.5 5.9 1.3 6.4-3.9-.1-1.7 7.3-2.4 9.1-.1 2.7-3.3 2.4-2.7-.8-.1-1.4.1-6.3-1-7.2-3.7-2.5 1.3-10.3 4.8-7.5z"/><path d="m85.2 226.2c2 3.7 8.8-.8 6.1-3.9"/><path d="m93.1 212.8v3.7"/><path d="m91.9 223.8s2.2 2.8 0 5.1"/><path d="m99.4 225.5v16.4"/><path d="m88.5 239.6v5.5"/></g><path d="m132.8 379.3c-19.7 7-19.7-23.2-4.5-28.1 19.7-7 19.7 23.2 4.5 28.1z" fill="#fdbe1a"/><path d="m46.5 227.4c-.1 4.4-.9 16.1 5.3 7.7 1.2 4.7-.5 12.8-5.6 15.1-3.8 1-7-3.4-5.8-5.9 2.2-4.6 2.5-10 3.2-15.1.1-.7 2.6-5 2.9-1.8z" fill="url(#cn)"/></svg>